<mxfile host="app.diagrams.net" agent="Mozilla/5.0 (Windows NT 10.0; Win64; x64) AppleWebKit/537.36 (KHTML, like Gecko) Chrome/132.0.0.0 Safari/537.36 OPR/117.0.0.0" version="26.2.12">
  <diagram name="Page-1" id="RGqOTd0qtPt_LsR8MtVP">
    <mxGraphModel dx="1003" dy="542" grid="1" gridSize="10" guides="1" tooltips="1" connect="1" arrows="1" fold="1" page="1" pageScale="1" pageWidth="850" pageHeight="1100" math="0" shadow="0">
      <root>
        <mxCell id="0" />
        <mxCell id="1" parent="0" />
        <mxCell id="xik8CPmccJCm_76LAXyS-1" value="user" style="shape=table;startSize=25;container=1;collapsible=0;childLayout=tableLayout;fixedRows=1;rowLines=1;fontStyle=1;align=center;resizeLast=1;" vertex="1" parent="1">
          <mxGeometry x="357" y="20" width="148" height="135" as="geometry" />
        </mxCell>
        <mxCell id="xik8CPmccJCm_76LAXyS-2" style="shape=tableRow;horizontal=0;startSize=0;swimlaneHead=0;swimlaneBody=0;fillColor=none;collapsible=0;dropTarget=0;points=[[0,0.5],[1,0.5]];portConstraint=eastwest;top=0;left=0;right=0;bottom=0;" vertex="1" parent="xik8CPmccJCm_76LAXyS-1">
          <mxGeometry y="25" width="148" height="22" as="geometry" />
        </mxCell>
        <mxCell id="xik8CPmccJCm_76LAXyS-3" value="int" style="shape=partialRectangle;connectable=0;fillColor=none;top=0;left=0;bottom=0;right=0;align=left;spacingLeft=2;overflow=hidden;fontSize=11;" vertex="1" parent="xik8CPmccJCm_76LAXyS-2">
          <mxGeometry width="36" height="22" as="geometry">
            <mxRectangle width="36" height="22" as="alternateBounds" />
          </mxGeometry>
        </mxCell>
        <mxCell id="xik8CPmccJCm_76LAXyS-4" value="userID" style="shape=partialRectangle;connectable=0;fillColor=none;top=0;left=0;bottom=0;right=0;align=left;spacingLeft=2;overflow=hidden;fontSize=11;" vertex="1" parent="xik8CPmccJCm_76LAXyS-2">
          <mxGeometry x="36" width="90" height="22" as="geometry">
            <mxRectangle width="90" height="22" as="alternateBounds" />
          </mxGeometry>
        </mxCell>
        <mxCell id="xik8CPmccJCm_76LAXyS-5" value="PK" style="shape=partialRectangle;connectable=0;fillColor=none;top=0;left=0;bottom=0;right=0;align=left;spacingLeft=2;overflow=hidden;fontSize=11;" vertex="1" parent="xik8CPmccJCm_76LAXyS-2">
          <mxGeometry x="126" width="22" height="22" as="geometry">
            <mxRectangle width="22" height="22" as="alternateBounds" />
          </mxGeometry>
        </mxCell>
        <mxCell id="xik8CPmccJCm_76LAXyS-6" style="shape=tableRow;horizontal=0;startSize=0;swimlaneHead=0;swimlaneBody=0;fillColor=none;collapsible=0;dropTarget=0;points=[[0,0.5],[1,0.5]];portConstraint=eastwest;top=0;left=0;right=0;bottom=0;" vertex="1" parent="xik8CPmccJCm_76LAXyS-1">
          <mxGeometry y="47" width="148" height="22" as="geometry" />
        </mxCell>
        <mxCell id="xik8CPmccJCm_76LAXyS-7" value="string" style="shape=partialRectangle;connectable=0;fillColor=none;top=0;left=0;bottom=0;right=0;align=left;spacingLeft=2;overflow=hidden;fontSize=11;" vertex="1" parent="xik8CPmccJCm_76LAXyS-6">
          <mxGeometry width="36" height="22" as="geometry">
            <mxRectangle width="36" height="22" as="alternateBounds" />
          </mxGeometry>
        </mxCell>
        <mxCell id="xik8CPmccJCm_76LAXyS-8" value="name" style="shape=partialRectangle;connectable=0;fillColor=none;top=0;left=0;bottom=0;right=0;align=left;spacingLeft=2;overflow=hidden;fontSize=11;" vertex="1" parent="xik8CPmccJCm_76LAXyS-6">
          <mxGeometry x="36" width="90" height="22" as="geometry">
            <mxRectangle width="90" height="22" as="alternateBounds" />
          </mxGeometry>
        </mxCell>
        <mxCell id="xik8CPmccJCm_76LAXyS-9" value="" style="shape=partialRectangle;connectable=0;fillColor=none;top=0;left=0;bottom=0;right=0;align=left;spacingLeft=2;overflow=hidden;fontSize=11;" vertex="1" parent="xik8CPmccJCm_76LAXyS-6">
          <mxGeometry x="126" width="22" height="22" as="geometry">
            <mxRectangle width="22" height="22" as="alternateBounds" />
          </mxGeometry>
        </mxCell>
        <mxCell id="xik8CPmccJCm_76LAXyS-10" style="shape=tableRow;horizontal=0;startSize=0;swimlaneHead=0;swimlaneBody=0;fillColor=none;collapsible=0;dropTarget=0;points=[[0,0.5],[1,0.5]];portConstraint=eastwest;top=0;left=0;right=0;bottom=0;" vertex="1" parent="xik8CPmccJCm_76LAXyS-1">
          <mxGeometry y="69" width="148" height="22" as="geometry" />
        </mxCell>
        <mxCell id="xik8CPmccJCm_76LAXyS-11" value="string" style="shape=partialRectangle;connectable=0;fillColor=none;top=0;left=0;bottom=0;right=0;align=left;spacingLeft=2;overflow=hidden;fontSize=11;" vertex="1" parent="xik8CPmccJCm_76LAXyS-10">
          <mxGeometry width="36" height="22" as="geometry">
            <mxRectangle width="36" height="22" as="alternateBounds" />
          </mxGeometry>
        </mxCell>
        <mxCell id="xik8CPmccJCm_76LAXyS-12" value="email" style="shape=partialRectangle;connectable=0;fillColor=none;top=0;left=0;bottom=0;right=0;align=left;spacingLeft=2;overflow=hidden;fontSize=11;" vertex="1" parent="xik8CPmccJCm_76LAXyS-10">
          <mxGeometry x="36" width="90" height="22" as="geometry">
            <mxRectangle width="90" height="22" as="alternateBounds" />
          </mxGeometry>
        </mxCell>
        <mxCell id="xik8CPmccJCm_76LAXyS-13" value="" style="shape=partialRectangle;connectable=0;fillColor=none;top=0;left=0;bottom=0;right=0;align=left;spacingLeft=2;overflow=hidden;fontSize=11;" vertex="1" parent="xik8CPmccJCm_76LAXyS-10">
          <mxGeometry x="126" width="22" height="22" as="geometry">
            <mxRectangle width="22" height="22" as="alternateBounds" />
          </mxGeometry>
        </mxCell>
        <mxCell id="xik8CPmccJCm_76LAXyS-14" style="shape=tableRow;horizontal=0;startSize=0;swimlaneHead=0;swimlaneBody=0;fillColor=none;collapsible=0;dropTarget=0;points=[[0,0.5],[1,0.5]];portConstraint=eastwest;top=0;left=0;right=0;bottom=0;" vertex="1" parent="xik8CPmccJCm_76LAXyS-1">
          <mxGeometry y="91" width="148" height="22" as="geometry" />
        </mxCell>
        <mxCell id="xik8CPmccJCm_76LAXyS-15" value="string" style="shape=partialRectangle;connectable=0;fillColor=none;top=0;left=0;bottom=0;right=0;align=left;spacingLeft=2;overflow=hidden;fontSize=11;" vertex="1" parent="xik8CPmccJCm_76LAXyS-14">
          <mxGeometry width="36" height="22" as="geometry">
            <mxRectangle width="36" height="22" as="alternateBounds" />
          </mxGeometry>
        </mxCell>
        <mxCell id="xik8CPmccJCm_76LAXyS-16" value="role" style="shape=partialRectangle;connectable=0;fillColor=none;top=0;left=0;bottom=0;right=0;align=left;spacingLeft=2;overflow=hidden;fontSize=11;" vertex="1" parent="xik8CPmccJCm_76LAXyS-14">
          <mxGeometry x="36" width="90" height="22" as="geometry">
            <mxRectangle width="90" height="22" as="alternateBounds" />
          </mxGeometry>
        </mxCell>
        <mxCell id="xik8CPmccJCm_76LAXyS-17" value="" style="shape=partialRectangle;connectable=0;fillColor=none;top=0;left=0;bottom=0;right=0;align=left;spacingLeft=2;overflow=hidden;fontSize=11;" vertex="1" parent="xik8CPmccJCm_76LAXyS-14">
          <mxGeometry x="126" width="22" height="22" as="geometry">
            <mxRectangle width="22" height="22" as="alternateBounds" />
          </mxGeometry>
        </mxCell>
        <mxCell id="xik8CPmccJCm_76LAXyS-18" style="shape=tableRow;horizontal=0;startSize=0;swimlaneHead=0;swimlaneBody=0;fillColor=none;collapsible=0;dropTarget=0;points=[[0,0.5],[1,0.5]];portConstraint=eastwest;top=0;left=0;right=0;bottom=0;" vertex="1" parent="xik8CPmccJCm_76LAXyS-1">
          <mxGeometry y="113" width="148" height="22" as="geometry" />
        </mxCell>
        <mxCell id="xik8CPmccJCm_76LAXyS-19" value="string" style="shape=partialRectangle;connectable=0;fillColor=none;top=0;left=0;bottom=0;right=0;align=left;spacingLeft=2;overflow=hidden;fontSize=11;" vertex="1" parent="xik8CPmccJCm_76LAXyS-18">
          <mxGeometry width="36" height="22" as="geometry">
            <mxRectangle width="36" height="22" as="alternateBounds" />
          </mxGeometry>
        </mxCell>
        <mxCell id="xik8CPmccJCm_76LAXyS-20" value="authCredentials" style="shape=partialRectangle;connectable=0;fillColor=none;top=0;left=0;bottom=0;right=0;align=left;spacingLeft=2;overflow=hidden;fontSize=11;" vertex="1" parent="xik8CPmccJCm_76LAXyS-18">
          <mxGeometry x="36" width="90" height="22" as="geometry">
            <mxRectangle width="90" height="22" as="alternateBounds" />
          </mxGeometry>
        </mxCell>
        <mxCell id="xik8CPmccJCm_76LAXyS-21" value="" style="shape=partialRectangle;connectable=0;fillColor=none;top=0;left=0;bottom=0;right=0;align=left;spacingLeft=2;overflow=hidden;fontSize=11;" vertex="1" parent="xik8CPmccJCm_76LAXyS-18">
          <mxGeometry x="126" width="22" height="22" as="geometry">
            <mxRectangle width="22" height="22" as="alternateBounds" />
          </mxGeometry>
        </mxCell>
        <mxCell id="xik8CPmccJCm_76LAXyS-22" value="sensor" style="shape=table;startSize=25;container=1;collapsible=0;childLayout=tableLayout;fixedRows=1;rowLines=1;fontStyle=1;align=center;resizeLast=1;" vertex="1" parent="1">
          <mxGeometry x="238" y="254" width="148" height="179" as="geometry" />
        </mxCell>
        <mxCell id="xik8CPmccJCm_76LAXyS-23" style="shape=tableRow;horizontal=0;startSize=0;swimlaneHead=0;swimlaneBody=0;fillColor=none;collapsible=0;dropTarget=0;points=[[0,0.5],[1,0.5]];portConstraint=eastwest;top=0;left=0;right=0;bottom=0;" vertex="1" parent="xik8CPmccJCm_76LAXyS-22">
          <mxGeometry y="25" width="148" height="22" as="geometry" />
        </mxCell>
        <mxCell id="xik8CPmccJCm_76LAXyS-24" value="int" style="shape=partialRectangle;connectable=0;fillColor=none;top=0;left=0;bottom=0;right=0;align=left;spacingLeft=2;overflow=hidden;fontSize=11;" vertex="1" parent="xik8CPmccJCm_76LAXyS-23">
          <mxGeometry width="36" height="22" as="geometry">
            <mxRectangle width="36" height="22" as="alternateBounds" />
          </mxGeometry>
        </mxCell>
        <mxCell id="xik8CPmccJCm_76LAXyS-25" value="sensorID" style="shape=partialRectangle;connectable=0;fillColor=none;top=0;left=0;bottom=0;right=0;align=left;spacingLeft=2;overflow=hidden;fontSize=11;" vertex="1" parent="xik8CPmccJCm_76LAXyS-23">
          <mxGeometry x="36" width="90" height="22" as="geometry">
            <mxRectangle width="90" height="22" as="alternateBounds" />
          </mxGeometry>
        </mxCell>
        <mxCell id="xik8CPmccJCm_76LAXyS-26" value="PK" style="shape=partialRectangle;connectable=0;fillColor=none;top=0;left=0;bottom=0;right=0;align=left;spacingLeft=2;overflow=hidden;fontSize=11;strokeColor=default;" vertex="1" parent="xik8CPmccJCm_76LAXyS-23">
          <mxGeometry x="126" width="22" height="22" as="geometry">
            <mxRectangle width="22" height="22" as="alternateBounds" />
          </mxGeometry>
        </mxCell>
        <mxCell id="xik8CPmccJCm_76LAXyS-27" style="shape=tableRow;horizontal=0;startSize=0;swimlaneHead=0;swimlaneBody=0;fillColor=none;collapsible=0;dropTarget=0;points=[[0,0.5],[1,0.5]];portConstraint=eastwest;top=0;left=0;right=0;bottom=0;" vertex="1" parent="xik8CPmccJCm_76LAXyS-22">
          <mxGeometry y="47" width="148" height="22" as="geometry" />
        </mxCell>
        <mxCell id="xik8CPmccJCm_76LAXyS-28" value="string" style="shape=partialRectangle;connectable=0;fillColor=none;top=0;left=0;bottom=0;right=0;align=left;spacingLeft=2;overflow=hidden;fontSize=11;" vertex="1" parent="xik8CPmccJCm_76LAXyS-27">
          <mxGeometry width="36" height="22" as="geometry">
            <mxRectangle width="36" height="22" as="alternateBounds" />
          </mxGeometry>
        </mxCell>
        <mxCell id="xik8CPmccJCm_76LAXyS-29" value="sensorType" style="shape=partialRectangle;connectable=0;fillColor=none;top=0;left=0;bottom=0;right=0;align=left;spacingLeft=2;overflow=hidden;fontSize=11;strokeColor=default;" vertex="1" parent="xik8CPmccJCm_76LAXyS-27">
          <mxGeometry x="36" width="90" height="22" as="geometry">
            <mxRectangle width="90" height="22" as="alternateBounds" />
          </mxGeometry>
        </mxCell>
        <mxCell id="xik8CPmccJCm_76LAXyS-30" value="" style="shape=partialRectangle;connectable=0;fillColor=none;top=0;left=0;bottom=0;right=0;align=left;spacingLeft=2;overflow=hidden;fontSize=11;" vertex="1" parent="xik8CPmccJCm_76LAXyS-27">
          <mxGeometry x="126" width="22" height="22" as="geometry">
            <mxRectangle width="22" height="22" as="alternateBounds" />
          </mxGeometry>
        </mxCell>
        <mxCell id="xik8CPmccJCm_76LAXyS-31" style="shape=tableRow;horizontal=0;startSize=0;swimlaneHead=0;swimlaneBody=0;fillColor=none;collapsible=0;dropTarget=0;points=[[0,0.5],[1,0.5]];portConstraint=eastwest;top=0;left=0;right=0;bottom=0;" vertex="1" parent="xik8CPmccJCm_76LAXyS-22">
          <mxGeometry y="69" width="148" height="22" as="geometry" />
        </mxCell>
        <mxCell id="xik8CPmccJCm_76LAXyS-32" value="string" style="shape=partialRectangle;connectable=0;fillColor=none;top=0;left=0;bottom=0;right=0;align=left;spacingLeft=2;overflow=hidden;fontSize=11;" vertex="1" parent="xik8CPmccJCm_76LAXyS-31">
          <mxGeometry width="36" height="22" as="geometry">
            <mxRectangle width="36" height="22" as="alternateBounds" />
          </mxGeometry>
        </mxCell>
        <mxCell id="xik8CPmccJCm_76LAXyS-33" value="model" style="shape=partialRectangle;connectable=0;fillColor=none;top=0;left=0;bottom=0;right=0;align=left;spacingLeft=2;overflow=hidden;fontSize=11;" vertex="1" parent="xik8CPmccJCm_76LAXyS-31">
          <mxGeometry x="36" width="90" height="22" as="geometry">
            <mxRectangle width="90" height="22" as="alternateBounds" />
          </mxGeometry>
        </mxCell>
        <mxCell id="xik8CPmccJCm_76LAXyS-34" value="" style="shape=partialRectangle;connectable=0;fillColor=none;top=0;left=0;bottom=0;right=0;align=left;spacingLeft=2;overflow=hidden;fontSize=11;" vertex="1" parent="xik8CPmccJCm_76LAXyS-31">
          <mxGeometry x="126" width="22" height="22" as="geometry">
            <mxRectangle width="22" height="22" as="alternateBounds" />
          </mxGeometry>
        </mxCell>
        <mxCell id="xik8CPmccJCm_76LAXyS-35" style="shape=tableRow;horizontal=0;startSize=0;swimlaneHead=0;swimlaneBody=0;fillColor=none;collapsible=0;dropTarget=0;points=[[0,0.5],[1,0.5]];portConstraint=eastwest;top=0;left=0;right=0;bottom=0;" vertex="1" parent="xik8CPmccJCm_76LAXyS-22">
          <mxGeometry y="91" width="148" height="22" as="geometry" />
        </mxCell>
        <mxCell id="xik8CPmccJCm_76LAXyS-36" value="string" style="shape=partialRectangle;connectable=0;fillColor=none;top=0;left=0;bottom=0;right=0;align=left;spacingLeft=2;overflow=hidden;fontSize=11;" vertex="1" parent="xik8CPmccJCm_76LAXyS-35">
          <mxGeometry width="36" height="22" as="geometry">
            <mxRectangle width="36" height="22" as="alternateBounds" />
          </mxGeometry>
        </mxCell>
        <mxCell id="xik8CPmccJCm_76LAXyS-37" value="location" style="shape=partialRectangle;connectable=0;fillColor=none;top=0;left=0;bottom=0;right=0;align=left;spacingLeft=2;overflow=hidden;fontSize=11;" vertex="1" parent="xik8CPmccJCm_76LAXyS-35">
          <mxGeometry x="36" width="90" height="22" as="geometry">
            <mxRectangle width="90" height="22" as="alternateBounds" />
          </mxGeometry>
        </mxCell>
        <mxCell id="xik8CPmccJCm_76LAXyS-38" value="" style="shape=partialRectangle;connectable=0;fillColor=none;top=0;left=0;bottom=0;right=0;align=left;spacingLeft=2;overflow=hidden;fontSize=11;" vertex="1" parent="xik8CPmccJCm_76LAXyS-35">
          <mxGeometry x="126" width="22" height="22" as="geometry">
            <mxRectangle width="22" height="22" as="alternateBounds" />
          </mxGeometry>
        </mxCell>
        <mxCell id="xik8CPmccJCm_76LAXyS-39" style="shape=tableRow;horizontal=0;startSize=0;swimlaneHead=0;swimlaneBody=0;fillColor=none;collapsible=0;dropTarget=0;points=[[0,0.5],[1,0.5]];portConstraint=eastwest;top=0;left=0;right=0;bottom=0;" vertex="1" parent="xik8CPmccJCm_76LAXyS-22">
          <mxGeometry y="113" width="148" height="22" as="geometry" />
        </mxCell>
        <mxCell id="xik8CPmccJCm_76LAXyS-40" value="float" style="shape=partialRectangle;connectable=0;fillColor=none;top=0;left=0;bottom=0;right=0;align=left;spacingLeft=2;overflow=hidden;fontSize=11;" vertex="1" parent="xik8CPmccJCm_76LAXyS-39">
          <mxGeometry width="36" height="22" as="geometry">
            <mxRectangle width="36" height="22" as="alternateBounds" />
          </mxGeometry>
        </mxCell>
        <mxCell id="xik8CPmccJCm_76LAXyS-41" value="elevation" style="shape=partialRectangle;connectable=0;fillColor=none;top=0;left=0;bottom=0;right=0;align=left;spacingLeft=2;overflow=hidden;fontSize=11;" vertex="1" parent="xik8CPmccJCm_76LAXyS-39">
          <mxGeometry x="36" width="90" height="22" as="geometry">
            <mxRectangle width="90" height="22" as="alternateBounds" />
          </mxGeometry>
        </mxCell>
        <mxCell id="xik8CPmccJCm_76LAXyS-42" value="" style="shape=partialRectangle;connectable=0;fillColor=none;top=0;left=0;bottom=0;right=0;align=left;spacingLeft=2;overflow=hidden;fontSize=11;" vertex="1" parent="xik8CPmccJCm_76LAXyS-39">
          <mxGeometry x="126" width="22" height="22" as="geometry">
            <mxRectangle width="22" height="22" as="alternateBounds" />
          </mxGeometry>
        </mxCell>
        <mxCell id="xik8CPmccJCm_76LAXyS-43" style="shape=tableRow;horizontal=0;startSize=0;swimlaneHead=0;swimlaneBody=0;fillColor=none;collapsible=0;dropTarget=0;points=[[0,0.5],[1,0.5]];portConstraint=eastwest;top=0;left=0;right=0;bottom=0;" vertex="1" parent="xik8CPmccJCm_76LAXyS-22">
          <mxGeometry y="135" width="148" height="22" as="geometry" />
        </mxCell>
        <mxCell id="xik8CPmccJCm_76LAXyS-44" value="string" style="shape=partialRectangle;connectable=0;fillColor=none;top=0;left=0;bottom=0;right=0;align=left;spacingLeft=2;overflow=hidden;fontSize=11;" vertex="1" parent="xik8CPmccJCm_76LAXyS-43">
          <mxGeometry width="36" height="22" as="geometry">
            <mxRectangle width="36" height="22" as="alternateBounds" />
          </mxGeometry>
        </mxCell>
        <mxCell id="xik8CPmccJCm_76LAXyS-45" value="status" style="shape=partialRectangle;connectable=0;fillColor=none;top=0;left=0;bottom=0;right=0;align=left;spacingLeft=2;overflow=hidden;fontSize=11;" vertex="1" parent="xik8CPmccJCm_76LAXyS-43">
          <mxGeometry x="36" width="90" height="22" as="geometry">
            <mxRectangle width="90" height="22" as="alternateBounds" />
          </mxGeometry>
        </mxCell>
        <mxCell id="xik8CPmccJCm_76LAXyS-46" value="" style="shape=partialRectangle;connectable=0;fillColor=none;top=0;left=0;bottom=0;right=0;align=left;spacingLeft=2;overflow=hidden;fontSize=11;" vertex="1" parent="xik8CPmccJCm_76LAXyS-43">
          <mxGeometry x="126" width="22" height="22" as="geometry">
            <mxRectangle width="22" height="22" as="alternateBounds" />
          </mxGeometry>
        </mxCell>
        <mxCell id="xik8CPmccJCm_76LAXyS-47" style="shape=tableRow;horizontal=0;startSize=0;swimlaneHead=0;swimlaneBody=0;fillColor=none;collapsible=0;dropTarget=0;points=[[0,0.5],[1,0.5]];portConstraint=eastwest;top=0;left=0;right=0;bottom=0;" vertex="1" parent="xik8CPmccJCm_76LAXyS-22">
          <mxGeometry y="157" width="148" height="22" as="geometry" />
        </mxCell>
        <mxCell id="xik8CPmccJCm_76LAXyS-48" value="date" style="shape=partialRectangle;connectable=0;fillColor=none;top=0;left=0;bottom=0;right=0;align=left;spacingLeft=2;overflow=hidden;fontSize=11;" vertex="1" parent="xik8CPmccJCm_76LAXyS-47">
          <mxGeometry width="36" height="22" as="geometry">
            <mxRectangle width="36" height="22" as="alternateBounds" />
          </mxGeometry>
        </mxCell>
        <mxCell id="xik8CPmccJCm_76LAXyS-49" value="lastMaintenance" style="shape=partialRectangle;connectable=0;fillColor=none;top=0;left=0;bottom=0;right=0;align=left;spacingLeft=2;overflow=hidden;fontSize=11;" vertex="1" parent="xik8CPmccJCm_76LAXyS-47">
          <mxGeometry x="36" width="90" height="22" as="geometry">
            <mxRectangle width="90" height="22" as="alternateBounds" />
          </mxGeometry>
        </mxCell>
        <mxCell id="xik8CPmccJCm_76LAXyS-50" value="" style="shape=partialRectangle;connectable=0;fillColor=none;top=0;left=0;bottom=0;right=0;align=left;spacingLeft=2;overflow=hidden;fontSize=11;" vertex="1" parent="xik8CPmccJCm_76LAXyS-47">
          <mxGeometry x="126" width="22" height="22" as="geometry">
            <mxRectangle width="22" height="22" as="alternateBounds" />
          </mxGeometry>
        </mxCell>
        <mxCell id="xik8CPmccJCm_76LAXyS-51" value="sensor_configuration" style="shape=table;startSize=25;container=1;collapsible=0;childLayout=tableLayout;fixedRows=1;rowLines=1;fontStyle=1;align=center;resizeLast=1;" vertex="1" parent="1">
          <mxGeometry x="100" y="542" width="158" height="135" as="geometry" />
        </mxCell>
        <mxCell id="xik8CPmccJCm_76LAXyS-52" style="shape=tableRow;horizontal=0;startSize=0;swimlaneHead=0;swimlaneBody=0;fillColor=none;collapsible=0;dropTarget=0;points=[[0,0.5],[1,0.5]];portConstraint=eastwest;top=0;left=0;right=0;bottom=0;" vertex="1" parent="xik8CPmccJCm_76LAXyS-51">
          <mxGeometry y="25" width="158" height="22" as="geometry" />
        </mxCell>
        <mxCell id="xik8CPmccJCm_76LAXyS-53" value="int" style="shape=partialRectangle;connectable=0;fillColor=none;top=0;left=0;bottom=0;right=0;align=left;spacingLeft=2;overflow=hidden;fontSize=11;" vertex="1" parent="xik8CPmccJCm_76LAXyS-52">
          <mxGeometry width="36" height="22" as="geometry">
            <mxRectangle width="36" height="22" as="alternateBounds" />
          </mxGeometry>
        </mxCell>
        <mxCell id="xik8CPmccJCm_76LAXyS-54" value="configID" style="shape=partialRectangle;connectable=0;fillColor=none;top=0;left=0;bottom=0;right=0;align=left;spacingLeft=2;overflow=hidden;fontSize=11;" vertex="1" parent="xik8CPmccJCm_76LAXyS-52">
          <mxGeometry x="36" width="100" height="22" as="geometry">
            <mxRectangle width="100" height="22" as="alternateBounds" />
          </mxGeometry>
        </mxCell>
        <mxCell id="xik8CPmccJCm_76LAXyS-55" value="PK" style="shape=partialRectangle;connectable=0;fillColor=none;top=0;left=0;bottom=0;right=0;align=left;spacingLeft=2;overflow=hidden;fontSize=11;" vertex="1" parent="xik8CPmccJCm_76LAXyS-52">
          <mxGeometry x="136" width="22" height="22" as="geometry">
            <mxRectangle width="22" height="22" as="alternateBounds" />
          </mxGeometry>
        </mxCell>
        <mxCell id="xik8CPmccJCm_76LAXyS-56" style="shape=tableRow;horizontal=0;startSize=0;swimlaneHead=0;swimlaneBody=0;fillColor=none;collapsible=0;dropTarget=0;points=[[0,0.5],[1,0.5]];portConstraint=eastwest;top=0;left=0;right=0;bottom=0;" vertex="1" parent="xik8CPmccJCm_76LAXyS-51">
          <mxGeometry y="47" width="158" height="22" as="geometry" />
        </mxCell>
        <mxCell id="xik8CPmccJCm_76LAXyS-57" value="int" style="shape=partialRectangle;connectable=0;fillColor=none;top=0;left=0;bottom=0;right=0;align=left;spacingLeft=2;overflow=hidden;fontSize=11;" vertex="1" parent="xik8CPmccJCm_76LAXyS-56">
          <mxGeometry width="36" height="22" as="geometry">
            <mxRectangle width="36" height="22" as="alternateBounds" />
          </mxGeometry>
        </mxCell>
        <mxCell id="xik8CPmccJCm_76LAXyS-58" value="sensorID" style="shape=partialRectangle;connectable=0;fillColor=none;top=0;left=0;bottom=0;right=0;align=left;spacingLeft=2;overflow=hidden;fontSize=11;" vertex="1" parent="xik8CPmccJCm_76LAXyS-56">
          <mxGeometry x="36" width="100" height="22" as="geometry">
            <mxRectangle width="100" height="22" as="alternateBounds" />
          </mxGeometry>
        </mxCell>
        <mxCell id="xik8CPmccJCm_76LAXyS-59" value="FK" style="shape=partialRectangle;connectable=0;fillColor=none;top=0;left=0;bottom=0;right=0;align=left;spacingLeft=2;overflow=hidden;fontSize=11;" vertex="1" parent="xik8CPmccJCm_76LAXyS-56">
          <mxGeometry x="136" width="22" height="22" as="geometry">
            <mxRectangle width="22" height="22" as="alternateBounds" />
          </mxGeometry>
        </mxCell>
        <mxCell id="xik8CPmccJCm_76LAXyS-60" style="shape=tableRow;horizontal=0;startSize=0;swimlaneHead=0;swimlaneBody=0;fillColor=none;collapsible=0;dropTarget=0;points=[[0,0.5],[1,0.5]];portConstraint=eastwest;top=0;left=0;right=0;bottom=0;" vertex="1" parent="xik8CPmccJCm_76LAXyS-51">
          <mxGeometry y="69" width="158" height="22" as="geometry" />
        </mxCell>
        <mxCell id="xik8CPmccJCm_76LAXyS-61" value="string" style="shape=partialRectangle;connectable=0;fillColor=none;top=0;left=0;bottom=0;right=0;align=left;spacingLeft=2;overflow=hidden;fontSize=11;" vertex="1" parent="xik8CPmccJCm_76LAXyS-60">
          <mxGeometry width="36" height="22" as="geometry">
            <mxRectangle width="36" height="22" as="alternateBounds" />
          </mxGeometry>
        </mxCell>
        <mxCell id="xik8CPmccJCm_76LAXyS-62" value="thresholds" style="shape=partialRectangle;connectable=0;fillColor=none;top=0;left=0;bottom=0;right=0;align=left;spacingLeft=2;overflow=hidden;fontSize=11;" vertex="1" parent="xik8CPmccJCm_76LAXyS-60">
          <mxGeometry x="36" width="100" height="22" as="geometry">
            <mxRectangle width="100" height="22" as="alternateBounds" />
          </mxGeometry>
        </mxCell>
        <mxCell id="xik8CPmccJCm_76LAXyS-63" value="" style="shape=partialRectangle;connectable=0;fillColor=none;top=0;left=0;bottom=0;right=0;align=left;spacingLeft=2;overflow=hidden;fontSize=11;" vertex="1" parent="xik8CPmccJCm_76LAXyS-60">
          <mxGeometry x="136" width="22" height="22" as="geometry">
            <mxRectangle width="22" height="22" as="alternateBounds" />
          </mxGeometry>
        </mxCell>
        <mxCell id="xik8CPmccJCm_76LAXyS-64" style="shape=tableRow;horizontal=0;startSize=0;swimlaneHead=0;swimlaneBody=0;fillColor=none;collapsible=0;dropTarget=0;points=[[0,0.5],[1,0.5]];portConstraint=eastwest;top=0;left=0;right=0;bottom=0;" vertex="1" parent="xik8CPmccJCm_76LAXyS-51">
          <mxGeometry y="91" width="158" height="22" as="geometry" />
        </mxCell>
        <mxCell id="xik8CPmccJCm_76LAXyS-65" value="string" style="shape=partialRectangle;connectable=0;fillColor=none;top=0;left=0;bottom=0;right=0;align=left;spacingLeft=2;overflow=hidden;fontSize=11;" vertex="1" parent="xik8CPmccJCm_76LAXyS-64">
          <mxGeometry width="36" height="22" as="geometry">
            <mxRectangle width="36" height="22" as="alternateBounds" />
          </mxGeometry>
        </mxCell>
        <mxCell id="xik8CPmccJCm_76LAXyS-66" value="firmwareVersion" style="shape=partialRectangle;connectable=0;fillColor=none;top=0;left=0;bottom=0;right=0;align=left;spacingLeft=2;overflow=hidden;fontSize=11;" vertex="1" parent="xik8CPmccJCm_76LAXyS-64">
          <mxGeometry x="36" width="100" height="22" as="geometry">
            <mxRectangle width="100" height="22" as="alternateBounds" />
          </mxGeometry>
        </mxCell>
        <mxCell id="xik8CPmccJCm_76LAXyS-67" value="" style="shape=partialRectangle;connectable=0;fillColor=none;top=0;left=0;bottom=0;right=0;align=left;spacingLeft=2;overflow=hidden;fontSize=11;" vertex="1" parent="xik8CPmccJCm_76LAXyS-64">
          <mxGeometry x="136" width="22" height="22" as="geometry">
            <mxRectangle width="22" height="22" as="alternateBounds" />
          </mxGeometry>
        </mxCell>
        <mxCell id="xik8CPmccJCm_76LAXyS-68" style="shape=tableRow;horizontal=0;startSize=0;swimlaneHead=0;swimlaneBody=0;fillColor=none;collapsible=0;dropTarget=0;points=[[0,0.5],[1,0.5]];portConstraint=eastwest;top=0;left=0;right=0;bottom=0;" vertex="1" parent="xik8CPmccJCm_76LAXyS-51">
          <mxGeometry y="113" width="158" height="22" as="geometry" />
        </mxCell>
        <mxCell id="xik8CPmccJCm_76LAXyS-69" value="date" style="shape=partialRectangle;connectable=0;fillColor=none;top=0;left=0;bottom=0;right=0;align=left;spacingLeft=2;overflow=hidden;fontSize=11;" vertex="1" parent="xik8CPmccJCm_76LAXyS-68">
          <mxGeometry width="36" height="22" as="geometry">
            <mxRectangle width="36" height="22" as="alternateBounds" />
          </mxGeometry>
        </mxCell>
        <mxCell id="xik8CPmccJCm_76LAXyS-70" value="updateDate" style="shape=partialRectangle;connectable=0;fillColor=none;top=0;left=0;bottom=0;right=0;align=left;spacingLeft=2;overflow=hidden;fontSize=11;" vertex="1" parent="xik8CPmccJCm_76LAXyS-68">
          <mxGeometry x="36" width="100" height="22" as="geometry">
            <mxRectangle width="100" height="22" as="alternateBounds" />
          </mxGeometry>
        </mxCell>
        <mxCell id="xik8CPmccJCm_76LAXyS-71" value="" style="shape=partialRectangle;connectable=0;fillColor=none;top=0;left=0;bottom=0;right=0;align=left;spacingLeft=2;overflow=hidden;fontSize=11;" vertex="1" parent="xik8CPmccJCm_76LAXyS-68">
          <mxGeometry x="136" width="22" height="22" as="geometry">
            <mxRectangle width="22" height="22" as="alternateBounds" />
          </mxGeometry>
        </mxCell>
        <mxCell id="xik8CPmccJCm_76LAXyS-72" value="measurement" style="shape=table;startSize=25;container=1;collapsible=0;childLayout=tableLayout;fixedRows=1;rowLines=1;fontStyle=1;align=center;resizeLast=1;" vertex="1" parent="1">
          <mxGeometry x="358" y="531" width="167" height="157" as="geometry" />
        </mxCell>
        <mxCell id="xik8CPmccJCm_76LAXyS-73" style="shape=tableRow;horizontal=0;startSize=0;swimlaneHead=0;swimlaneBody=0;fillColor=none;collapsible=0;dropTarget=0;points=[[0,0.5],[1,0.5]];portConstraint=eastwest;top=0;left=0;right=0;bottom=0;" vertex="1" parent="xik8CPmccJCm_76LAXyS-72">
          <mxGeometry y="25" width="167" height="22" as="geometry" />
        </mxCell>
        <mxCell id="xik8CPmccJCm_76LAXyS-74" value="int" style="shape=partialRectangle;connectable=0;fillColor=none;top=0;left=0;bottom=0;right=0;align=left;spacingLeft=2;overflow=hidden;fontSize=11;" vertex="1" parent="xik8CPmccJCm_76LAXyS-73">
          <mxGeometry width="48" height="22" as="geometry">
            <mxRectangle width="48" height="22" as="alternateBounds" />
          </mxGeometry>
        </mxCell>
        <mxCell id="xik8CPmccJCm_76LAXyS-75" value="measurementID" style="shape=partialRectangle;connectable=0;fillColor=none;top=0;left=0;bottom=0;right=0;align=left;spacingLeft=2;overflow=hidden;fontSize=11;" vertex="1" parent="xik8CPmccJCm_76LAXyS-73">
          <mxGeometry x="48" width="97" height="22" as="geometry">
            <mxRectangle width="97" height="22" as="alternateBounds" />
          </mxGeometry>
        </mxCell>
        <mxCell id="xik8CPmccJCm_76LAXyS-76" value="PK" style="shape=partialRectangle;connectable=0;fillColor=none;top=0;left=0;bottom=0;right=0;align=left;spacingLeft=2;overflow=hidden;fontSize=11;" vertex="1" parent="xik8CPmccJCm_76LAXyS-73">
          <mxGeometry x="145" width="22" height="22" as="geometry">
            <mxRectangle width="22" height="22" as="alternateBounds" />
          </mxGeometry>
        </mxCell>
        <mxCell id="xik8CPmccJCm_76LAXyS-77" style="shape=tableRow;horizontal=0;startSize=0;swimlaneHead=0;swimlaneBody=0;fillColor=none;collapsible=0;dropTarget=0;points=[[0,0.5],[1,0.5]];portConstraint=eastwest;top=0;left=0;right=0;bottom=0;" vertex="1" parent="xik8CPmccJCm_76LAXyS-72">
          <mxGeometry y="47" width="167" height="22" as="geometry" />
        </mxCell>
        <mxCell id="xik8CPmccJCm_76LAXyS-78" value="datetime" style="shape=partialRectangle;connectable=0;fillColor=none;top=0;left=0;bottom=0;right=0;align=left;spacingLeft=2;overflow=hidden;fontSize=11;" vertex="1" parent="xik8CPmccJCm_76LAXyS-77">
          <mxGeometry width="48" height="22" as="geometry">
            <mxRectangle width="48" height="22" as="alternateBounds" />
          </mxGeometry>
        </mxCell>
        <mxCell id="xik8CPmccJCm_76LAXyS-79" value="timestamp" style="shape=partialRectangle;connectable=0;fillColor=none;top=0;left=0;bottom=0;right=0;align=left;spacingLeft=2;overflow=hidden;fontSize=11;" vertex="1" parent="xik8CPmccJCm_76LAXyS-77">
          <mxGeometry x="48" width="97" height="22" as="geometry">
            <mxRectangle width="97" height="22" as="alternateBounds" />
          </mxGeometry>
        </mxCell>
        <mxCell id="xik8CPmccJCm_76LAXyS-80" value="" style="shape=partialRectangle;connectable=0;fillColor=none;top=0;left=0;bottom=0;right=0;align=left;spacingLeft=2;overflow=hidden;fontSize=11;" vertex="1" parent="xik8CPmccJCm_76LAXyS-77">
          <mxGeometry x="145" width="22" height="22" as="geometry">
            <mxRectangle width="22" height="22" as="alternateBounds" />
          </mxGeometry>
        </mxCell>
        <mxCell id="xik8CPmccJCm_76LAXyS-81" style="shape=tableRow;horizontal=0;startSize=0;swimlaneHead=0;swimlaneBody=0;fillColor=none;collapsible=0;dropTarget=0;points=[[0,0.5],[1,0.5]];portConstraint=eastwest;top=0;left=0;right=0;bottom=0;" vertex="1" parent="xik8CPmccJCm_76LAXyS-72">
          <mxGeometry y="69" width="167" height="22" as="geometry" />
        </mxCell>
        <mxCell id="xik8CPmccJCm_76LAXyS-82" value="float" style="shape=partialRectangle;connectable=0;fillColor=none;top=0;left=0;bottom=0;right=0;align=left;spacingLeft=2;overflow=hidden;fontSize=11;" vertex="1" parent="xik8CPmccJCm_76LAXyS-81">
          <mxGeometry width="48" height="22" as="geometry">
            <mxRectangle width="48" height="22" as="alternateBounds" />
          </mxGeometry>
        </mxCell>
        <mxCell id="xik8CPmccJCm_76LAXyS-83" value="value" style="shape=partialRectangle;connectable=0;fillColor=none;top=0;left=0;bottom=0;right=0;align=left;spacingLeft=2;overflow=hidden;fontSize=11;" vertex="1" parent="xik8CPmccJCm_76LAXyS-81">
          <mxGeometry x="48" width="97" height="22" as="geometry">
            <mxRectangle width="97" height="22" as="alternateBounds" />
          </mxGeometry>
        </mxCell>
        <mxCell id="xik8CPmccJCm_76LAXyS-84" value="" style="shape=partialRectangle;connectable=0;fillColor=none;top=0;left=0;bottom=0;right=0;align=left;spacingLeft=2;overflow=hidden;fontSize=11;" vertex="1" parent="xik8CPmccJCm_76LAXyS-81">
          <mxGeometry x="145" width="22" height="22" as="geometry">
            <mxRectangle width="22" height="22" as="alternateBounds" />
          </mxGeometry>
        </mxCell>
        <mxCell id="xik8CPmccJCm_76LAXyS-85" style="shape=tableRow;horizontal=0;startSize=0;swimlaneHead=0;swimlaneBody=0;fillColor=none;collapsible=0;dropTarget=0;points=[[0,0.5],[1,0.5]];portConstraint=eastwest;top=0;left=0;right=0;bottom=0;" vertex="1" parent="xik8CPmccJCm_76LAXyS-72">
          <mxGeometry y="91" width="167" height="22" as="geometry" />
        </mxCell>
        <mxCell id="xik8CPmccJCm_76LAXyS-86" value="string" style="shape=partialRectangle;connectable=0;fillColor=none;top=0;left=0;bottom=0;right=0;align=left;spacingLeft=2;overflow=hidden;fontSize=11;" vertex="1" parent="xik8CPmccJCm_76LAXyS-85">
          <mxGeometry width="48" height="22" as="geometry">
            <mxRectangle width="48" height="22" as="alternateBounds" />
          </mxGeometry>
        </mxCell>
        <mxCell id="xik8CPmccJCm_76LAXyS-87" value="unit" style="shape=partialRectangle;connectable=0;fillColor=none;top=0;left=0;bottom=0;right=0;align=left;spacingLeft=2;overflow=hidden;fontSize=11;" vertex="1" parent="xik8CPmccJCm_76LAXyS-85">
          <mxGeometry x="48" width="97" height="22" as="geometry">
            <mxRectangle width="97" height="22" as="alternateBounds" />
          </mxGeometry>
        </mxCell>
        <mxCell id="xik8CPmccJCm_76LAXyS-88" value="" style="shape=partialRectangle;connectable=0;fillColor=none;top=0;left=0;bottom=0;right=0;align=left;spacingLeft=2;overflow=hidden;fontSize=11;" vertex="1" parent="xik8CPmccJCm_76LAXyS-85">
          <mxGeometry x="145" width="22" height="22" as="geometry">
            <mxRectangle width="22" height="22" as="alternateBounds" />
          </mxGeometry>
        </mxCell>
        <mxCell id="xik8CPmccJCm_76LAXyS-89" style="shape=tableRow;horizontal=0;startSize=0;swimlaneHead=0;swimlaneBody=0;fillColor=none;collapsible=0;dropTarget=0;points=[[0,0.5],[1,0.5]];portConstraint=eastwest;top=0;left=0;right=0;bottom=0;" vertex="1" parent="xik8CPmccJCm_76LAXyS-72">
          <mxGeometry y="113" width="167" height="22" as="geometry" />
        </mxCell>
        <mxCell id="xik8CPmccJCm_76LAXyS-90" value="string" style="shape=partialRectangle;connectable=0;fillColor=none;top=0;left=0;bottom=0;right=0;align=left;spacingLeft=2;overflow=hidden;fontSize=11;" vertex="1" parent="xik8CPmccJCm_76LAXyS-89">
          <mxGeometry width="48" height="22" as="geometry">
            <mxRectangle width="48" height="22" as="alternateBounds" />
          </mxGeometry>
        </mxCell>
        <mxCell id="xik8CPmccJCm_76LAXyS-91" value="measurementType" style="shape=partialRectangle;connectable=0;fillColor=none;top=0;left=0;bottom=0;right=0;align=left;spacingLeft=2;overflow=hidden;fontSize=11;" vertex="1" parent="xik8CPmccJCm_76LAXyS-89">
          <mxGeometry x="48" width="97" height="22" as="geometry">
            <mxRectangle width="97" height="22" as="alternateBounds" />
          </mxGeometry>
        </mxCell>
        <mxCell id="xik8CPmccJCm_76LAXyS-92" value="" style="shape=partialRectangle;connectable=0;fillColor=none;top=0;left=0;bottom=0;right=0;align=left;spacingLeft=2;overflow=hidden;fontSize=11;" vertex="1" parent="xik8CPmccJCm_76LAXyS-89">
          <mxGeometry x="145" width="22" height="22" as="geometry">
            <mxRectangle width="22" height="22" as="alternateBounds" />
          </mxGeometry>
        </mxCell>
        <mxCell id="xik8CPmccJCm_76LAXyS-93" style="shape=tableRow;horizontal=0;startSize=0;swimlaneHead=0;swimlaneBody=0;fillColor=none;collapsible=0;dropTarget=0;points=[[0,0.5],[1,0.5]];portConstraint=eastwest;top=0;left=0;right=0;bottom=0;" vertex="1" parent="xik8CPmccJCm_76LAXyS-72">
          <mxGeometry y="135" width="167" height="22" as="geometry" />
        </mxCell>
        <mxCell id="xik8CPmccJCm_76LAXyS-94" value="int" style="shape=partialRectangle;connectable=0;fillColor=none;top=0;left=0;bottom=0;right=0;align=left;spacingLeft=2;overflow=hidden;fontSize=11;" vertex="1" parent="xik8CPmccJCm_76LAXyS-93">
          <mxGeometry width="48" height="22" as="geometry">
            <mxRectangle width="48" height="22" as="alternateBounds" />
          </mxGeometry>
        </mxCell>
        <mxCell id="xik8CPmccJCm_76LAXyS-95" value="sensorID" style="shape=partialRectangle;connectable=0;fillColor=none;top=0;left=0;bottom=0;right=0;align=left;spacingLeft=2;overflow=hidden;fontSize=11;" vertex="1" parent="xik8CPmccJCm_76LAXyS-93">
          <mxGeometry x="48" width="97" height="22" as="geometry">
            <mxRectangle width="97" height="22" as="alternateBounds" />
          </mxGeometry>
        </mxCell>
        <mxCell id="xik8CPmccJCm_76LAXyS-96" value="FK" style="shape=partialRectangle;connectable=0;fillColor=none;top=0;left=0;bottom=0;right=0;align=left;spacingLeft=2;overflow=hidden;fontSize=11;" vertex="1" parent="xik8CPmccJCm_76LAXyS-93">
          <mxGeometry x="145" width="22" height="22" as="geometry">
            <mxRectangle width="22" height="22" as="alternateBounds" />
          </mxGeometry>
        </mxCell>
        <mxCell id="xik8CPmccJCm_76LAXyS-97" value="air_quality" style="shape=table;startSize=25;container=1;collapsible=0;childLayout=tableLayout;fixedRows=1;rowLines=1;fontStyle=1;align=center;resizeLast=1;" vertex="1" parent="1">
          <mxGeometry x="20" y="798" width="136" height="135" as="geometry" />
        </mxCell>
        <mxCell id="xik8CPmccJCm_76LAXyS-98" style="shape=tableRow;horizontal=0;startSize=0;swimlaneHead=0;swimlaneBody=0;fillColor=none;collapsible=0;dropTarget=0;points=[[0,0.5],[1,0.5]];portConstraint=eastwest;top=0;left=0;right=0;bottom=0;" vertex="1" parent="xik8CPmccJCm_76LAXyS-97">
          <mxGeometry y="25" width="136" height="22" as="geometry" />
        </mxCell>
        <mxCell id="xik8CPmccJCm_76LAXyS-99" value="int" style="shape=partialRectangle;connectable=0;fillColor=none;top=0;left=0;bottom=0;right=0;align=left;spacingLeft=2;overflow=hidden;fontSize=11;" vertex="1" parent="xik8CPmccJCm_76LAXyS-98">
          <mxGeometry width="30" height="22" as="geometry">
            <mxRectangle width="30" height="22" as="alternateBounds" />
          </mxGeometry>
        </mxCell>
        <mxCell id="xik8CPmccJCm_76LAXyS-100" value="measurementID" style="shape=partialRectangle;connectable=0;fillColor=none;top=0;left=0;bottom=0;right=0;align=left;spacingLeft=2;overflow=hidden;fontSize=11;" vertex="1" parent="xik8CPmccJCm_76LAXyS-98">
          <mxGeometry x="30" width="84" height="22" as="geometry">
            <mxRectangle width="84" height="22" as="alternateBounds" />
          </mxGeometry>
        </mxCell>
        <mxCell id="xik8CPmccJCm_76LAXyS-101" value="PK" style="shape=partialRectangle;connectable=0;fillColor=none;top=0;left=0;bottom=0;right=0;align=left;spacingLeft=2;overflow=hidden;fontSize=11;" vertex="1" parent="xik8CPmccJCm_76LAXyS-98">
          <mxGeometry x="114" width="22" height="22" as="geometry">
            <mxRectangle width="22" height="22" as="alternateBounds" />
          </mxGeometry>
        </mxCell>
        <mxCell id="xik8CPmccJCm_76LAXyS-102" style="shape=tableRow;horizontal=0;startSize=0;swimlaneHead=0;swimlaneBody=0;fillColor=none;collapsible=0;dropTarget=0;points=[[0,0.5],[1,0.5]];portConstraint=eastwest;top=0;left=0;right=0;bottom=0;" vertex="1" parent="xik8CPmccJCm_76LAXyS-97">
          <mxGeometry y="47" width="136" height="22" as="geometry" />
        </mxCell>
        <mxCell id="xik8CPmccJCm_76LAXyS-103" value="float" style="shape=partialRectangle;connectable=0;fillColor=none;top=0;left=0;bottom=0;right=0;align=left;spacingLeft=2;overflow=hidden;fontSize=11;" vertex="1" parent="xik8CPmccJCm_76LAXyS-102">
          <mxGeometry width="30" height="22" as="geometry">
            <mxRectangle width="30" height="22" as="alternateBounds" />
          </mxGeometry>
        </mxCell>
        <mxCell id="xik8CPmccJCm_76LAXyS-104" value="NO2" style="shape=partialRectangle;connectable=0;fillColor=none;top=0;left=0;bottom=0;right=0;align=left;spacingLeft=2;overflow=hidden;fontSize=11;" vertex="1" parent="xik8CPmccJCm_76LAXyS-102">
          <mxGeometry x="30" width="84" height="22" as="geometry">
            <mxRectangle width="84" height="22" as="alternateBounds" />
          </mxGeometry>
        </mxCell>
        <mxCell id="xik8CPmccJCm_76LAXyS-105" value="" style="shape=partialRectangle;connectable=0;fillColor=none;top=0;left=0;bottom=0;right=0;align=left;spacingLeft=2;overflow=hidden;fontSize=11;" vertex="1" parent="xik8CPmccJCm_76LAXyS-102">
          <mxGeometry x="114" width="22" height="22" as="geometry">
            <mxRectangle width="22" height="22" as="alternateBounds" />
          </mxGeometry>
        </mxCell>
        <mxCell id="xik8CPmccJCm_76LAXyS-106" style="shape=tableRow;horizontal=0;startSize=0;swimlaneHead=0;swimlaneBody=0;fillColor=none;collapsible=0;dropTarget=0;points=[[0,0.5],[1,0.5]];portConstraint=eastwest;top=0;left=0;right=0;bottom=0;" vertex="1" parent="xik8CPmccJCm_76LAXyS-97">
          <mxGeometry y="69" width="136" height="22" as="geometry" />
        </mxCell>
        <mxCell id="xik8CPmccJCm_76LAXyS-107" value="float" style="shape=partialRectangle;connectable=0;fillColor=none;top=0;left=0;bottom=0;right=0;align=left;spacingLeft=2;overflow=hidden;fontSize=11;" vertex="1" parent="xik8CPmccJCm_76LAXyS-106">
          <mxGeometry width="30" height="22" as="geometry">
            <mxRectangle width="30" height="22" as="alternateBounds" />
          </mxGeometry>
        </mxCell>
        <mxCell id="xik8CPmccJCm_76LAXyS-108" value="SO2" style="shape=partialRectangle;connectable=0;fillColor=none;top=0;left=0;bottom=0;right=0;align=left;spacingLeft=2;overflow=hidden;fontSize=11;" vertex="1" parent="xik8CPmccJCm_76LAXyS-106">
          <mxGeometry x="30" width="84" height="22" as="geometry">
            <mxRectangle width="84" height="22" as="alternateBounds" />
          </mxGeometry>
        </mxCell>
        <mxCell id="xik8CPmccJCm_76LAXyS-109" value="" style="shape=partialRectangle;connectable=0;fillColor=none;top=0;left=0;bottom=0;right=0;align=left;spacingLeft=2;overflow=hidden;fontSize=11;" vertex="1" parent="xik8CPmccJCm_76LAXyS-106">
          <mxGeometry x="114" width="22" height="22" as="geometry">
            <mxRectangle width="22" height="22" as="alternateBounds" />
          </mxGeometry>
        </mxCell>
        <mxCell id="xik8CPmccJCm_76LAXyS-110" style="shape=tableRow;horizontal=0;startSize=0;swimlaneHead=0;swimlaneBody=0;fillColor=none;collapsible=0;dropTarget=0;points=[[0,0.5],[1,0.5]];portConstraint=eastwest;top=0;left=0;right=0;bottom=0;" vertex="1" parent="xik8CPmccJCm_76LAXyS-97">
          <mxGeometry y="91" width="136" height="22" as="geometry" />
        </mxCell>
        <mxCell id="xik8CPmccJCm_76LAXyS-111" value="float" style="shape=partialRectangle;connectable=0;fillColor=none;top=0;left=0;bottom=0;right=0;align=left;spacingLeft=2;overflow=hidden;fontSize=11;" vertex="1" parent="xik8CPmccJCm_76LAXyS-110">
          <mxGeometry width="30" height="22" as="geometry">
            <mxRectangle width="30" height="22" as="alternateBounds" />
          </mxGeometry>
        </mxCell>
        <mxCell id="xik8CPmccJCm_76LAXyS-112" value="PM25" style="shape=partialRectangle;connectable=0;fillColor=none;top=0;left=0;bottom=0;right=0;align=left;spacingLeft=2;overflow=hidden;fontSize=11;" vertex="1" parent="xik8CPmccJCm_76LAXyS-110">
          <mxGeometry x="30" width="84" height="22" as="geometry">
            <mxRectangle width="84" height="22" as="alternateBounds" />
          </mxGeometry>
        </mxCell>
        <mxCell id="xik8CPmccJCm_76LAXyS-113" value="" style="shape=partialRectangle;connectable=0;fillColor=none;top=0;left=0;bottom=0;right=0;align=left;spacingLeft=2;overflow=hidden;fontSize=11;" vertex="1" parent="xik8CPmccJCm_76LAXyS-110">
          <mxGeometry x="114" width="22" height="22" as="geometry">
            <mxRectangle width="22" height="22" as="alternateBounds" />
          </mxGeometry>
        </mxCell>
        <mxCell id="xik8CPmccJCm_76LAXyS-114" style="shape=tableRow;horizontal=0;startSize=0;swimlaneHead=0;swimlaneBody=0;fillColor=none;collapsible=0;dropTarget=0;points=[[0,0.5],[1,0.5]];portConstraint=eastwest;top=0;left=0;right=0;bottom=0;" vertex="1" parent="xik8CPmccJCm_76LAXyS-97">
          <mxGeometry y="113" width="136" height="22" as="geometry" />
        </mxCell>
        <mxCell id="xik8CPmccJCm_76LAXyS-115" value="float" style="shape=partialRectangle;connectable=0;fillColor=none;top=0;left=0;bottom=0;right=0;align=left;spacingLeft=2;overflow=hidden;fontSize=11;" vertex="1" parent="xik8CPmccJCm_76LAXyS-114">
          <mxGeometry width="30" height="22" as="geometry">
            <mxRectangle width="30" height="22" as="alternateBounds" />
          </mxGeometry>
        </mxCell>
        <mxCell id="xik8CPmccJCm_76LAXyS-116" value="PM10" style="shape=partialRectangle;connectable=0;fillColor=none;top=0;left=0;bottom=0;right=0;align=left;spacingLeft=2;overflow=hidden;fontSize=11;" vertex="1" parent="xik8CPmccJCm_76LAXyS-114">
          <mxGeometry x="30" width="84" height="22" as="geometry">
            <mxRectangle width="84" height="22" as="alternateBounds" />
          </mxGeometry>
        </mxCell>
        <mxCell id="xik8CPmccJCm_76LAXyS-117" value="" style="shape=partialRectangle;connectable=0;fillColor=none;top=0;left=0;bottom=0;right=0;align=left;spacingLeft=2;overflow=hidden;fontSize=11;" vertex="1" parent="xik8CPmccJCm_76LAXyS-114">
          <mxGeometry x="114" width="22" height="22" as="geometry">
            <mxRectangle width="22" height="22" as="alternateBounds" />
          </mxGeometry>
        </mxCell>
        <mxCell id="xik8CPmccJCm_76LAXyS-118" value="water_quality" style="shape=table;startSize=25;container=1;collapsible=0;childLayout=tableLayout;fixedRows=1;rowLines=1;fontStyle=1;align=center;resizeLast=1;" vertex="1" parent="1">
          <mxGeometry x="289" y="840" width="136" height="135" as="geometry" />
        </mxCell>
        <mxCell id="xik8CPmccJCm_76LAXyS-119" style="shape=tableRow;horizontal=0;startSize=0;swimlaneHead=0;swimlaneBody=0;fillColor=none;collapsible=0;dropTarget=0;points=[[0,0.5],[1,0.5]];portConstraint=eastwest;top=0;left=0;right=0;bottom=0;" vertex="1" parent="xik8CPmccJCm_76LAXyS-118">
          <mxGeometry y="25" width="136" height="22" as="geometry" />
        </mxCell>
        <mxCell id="xik8CPmccJCm_76LAXyS-120" value="int" style="shape=partialRectangle;connectable=0;fillColor=none;top=0;left=0;bottom=0;right=0;align=left;spacingLeft=2;overflow=hidden;fontSize=11;" vertex="1" parent="xik8CPmccJCm_76LAXyS-119">
          <mxGeometry width="30" height="22" as="geometry">
            <mxRectangle width="30" height="22" as="alternateBounds" />
          </mxGeometry>
        </mxCell>
        <mxCell id="xik8CPmccJCm_76LAXyS-121" value="measurementID" style="shape=partialRectangle;connectable=0;fillColor=none;top=0;left=0;bottom=0;right=0;align=left;spacingLeft=2;overflow=hidden;fontSize=11;" vertex="1" parent="xik8CPmccJCm_76LAXyS-119">
          <mxGeometry x="30" width="84" height="22" as="geometry">
            <mxRectangle width="84" height="22" as="alternateBounds" />
          </mxGeometry>
        </mxCell>
        <mxCell id="xik8CPmccJCm_76LAXyS-122" value="PK" style="shape=partialRectangle;connectable=0;fillColor=none;top=0;left=0;bottom=0;right=0;align=left;spacingLeft=2;overflow=hidden;fontSize=11;" vertex="1" parent="xik8CPmccJCm_76LAXyS-119">
          <mxGeometry x="114" width="22" height="22" as="geometry">
            <mxRectangle width="22" height="22" as="alternateBounds" />
          </mxGeometry>
        </mxCell>
        <mxCell id="xik8CPmccJCm_76LAXyS-123" style="shape=tableRow;horizontal=0;startSize=0;swimlaneHead=0;swimlaneBody=0;fillColor=none;collapsible=0;dropTarget=0;points=[[0,0.5],[1,0.5]];portConstraint=eastwest;top=0;left=0;right=0;bottom=0;" vertex="1" parent="xik8CPmccJCm_76LAXyS-118">
          <mxGeometry y="47" width="136" height="22" as="geometry" />
        </mxCell>
        <mxCell id="xik8CPmccJCm_76LAXyS-124" value="float" style="shape=partialRectangle;connectable=0;fillColor=none;top=0;left=0;bottom=0;right=0;align=left;spacingLeft=2;overflow=hidden;fontSize=11;" vertex="1" parent="xik8CPmccJCm_76LAXyS-123">
          <mxGeometry width="30" height="22" as="geometry">
            <mxRectangle width="30" height="22" as="alternateBounds" />
          </mxGeometry>
        </mxCell>
        <mxCell id="xik8CPmccJCm_76LAXyS-125" value="nitrate" style="shape=partialRectangle;connectable=0;fillColor=none;top=0;left=0;bottom=0;right=0;align=left;spacingLeft=2;overflow=hidden;fontSize=11;" vertex="1" parent="xik8CPmccJCm_76LAXyS-123">
          <mxGeometry x="30" width="84" height="22" as="geometry">
            <mxRectangle width="84" height="22" as="alternateBounds" />
          </mxGeometry>
        </mxCell>
        <mxCell id="xik8CPmccJCm_76LAXyS-126" value="" style="shape=partialRectangle;connectable=0;fillColor=none;top=0;left=0;bottom=0;right=0;align=left;spacingLeft=2;overflow=hidden;fontSize=11;" vertex="1" parent="xik8CPmccJCm_76LAXyS-123">
          <mxGeometry x="114" width="22" height="22" as="geometry">
            <mxRectangle width="22" height="22" as="alternateBounds" />
          </mxGeometry>
        </mxCell>
        <mxCell id="xik8CPmccJCm_76LAXyS-127" style="shape=tableRow;horizontal=0;startSize=0;swimlaneHead=0;swimlaneBody=0;fillColor=none;collapsible=0;dropTarget=0;points=[[0,0.5],[1,0.5]];portConstraint=eastwest;top=0;left=0;right=0;bottom=0;" vertex="1" parent="xik8CPmccJCm_76LAXyS-118">
          <mxGeometry y="69" width="136" height="22" as="geometry" />
        </mxCell>
        <mxCell id="xik8CPmccJCm_76LAXyS-128" value="float" style="shape=partialRectangle;connectable=0;fillColor=none;top=0;left=0;bottom=0;right=0;align=left;spacingLeft=2;overflow=hidden;fontSize=11;" vertex="1" parent="xik8CPmccJCm_76LAXyS-127">
          <mxGeometry width="30" height="22" as="geometry">
            <mxRectangle width="30" height="22" as="alternateBounds" />
          </mxGeometry>
        </mxCell>
        <mxCell id="xik8CPmccJCm_76LAXyS-129" value="nitrite" style="shape=partialRectangle;connectable=0;fillColor=none;top=0;left=0;bottom=0;right=0;align=left;spacingLeft=2;overflow=hidden;fontSize=11;" vertex="1" parent="xik8CPmccJCm_76LAXyS-127">
          <mxGeometry x="30" width="84" height="22" as="geometry">
            <mxRectangle width="84" height="22" as="alternateBounds" />
          </mxGeometry>
        </mxCell>
        <mxCell id="xik8CPmccJCm_76LAXyS-130" value="" style="shape=partialRectangle;connectable=0;fillColor=none;top=0;left=0;bottom=0;right=0;align=left;spacingLeft=2;overflow=hidden;fontSize=11;" vertex="1" parent="xik8CPmccJCm_76LAXyS-127">
          <mxGeometry x="114" width="22" height="22" as="geometry">
            <mxRectangle width="22" height="22" as="alternateBounds" />
          </mxGeometry>
        </mxCell>
        <mxCell id="xik8CPmccJCm_76LAXyS-131" style="shape=tableRow;horizontal=0;startSize=0;swimlaneHead=0;swimlaneBody=0;fillColor=none;collapsible=0;dropTarget=0;points=[[0,0.5],[1,0.5]];portConstraint=eastwest;top=0;left=0;right=0;bottom=0;" vertex="1" parent="xik8CPmccJCm_76LAXyS-118">
          <mxGeometry y="91" width="136" height="22" as="geometry" />
        </mxCell>
        <mxCell id="xik8CPmccJCm_76LAXyS-132" value="float" style="shape=partialRectangle;connectable=0;fillColor=none;top=0;left=0;bottom=0;right=0;align=left;spacingLeft=2;overflow=hidden;fontSize=11;" vertex="1" parent="xik8CPmccJCm_76LAXyS-131">
          <mxGeometry width="30" height="22" as="geometry">
            <mxRectangle width="30" height="22" as="alternateBounds" />
          </mxGeometry>
        </mxCell>
        <mxCell id="xik8CPmccJCm_76LAXyS-133" value="phosphate" style="shape=partialRectangle;connectable=0;fillColor=none;top=0;left=0;bottom=0;right=0;align=left;spacingLeft=2;overflow=hidden;fontSize=11;" vertex="1" parent="xik8CPmccJCm_76LAXyS-131">
          <mxGeometry x="30" width="84" height="22" as="geometry">
            <mxRectangle width="84" height="22" as="alternateBounds" />
          </mxGeometry>
        </mxCell>
        <mxCell id="xik8CPmccJCm_76LAXyS-134" value="" style="shape=partialRectangle;connectable=0;fillColor=none;top=0;left=0;bottom=0;right=0;align=left;spacingLeft=2;overflow=hidden;fontSize=11;" vertex="1" parent="xik8CPmccJCm_76LAXyS-131">
          <mxGeometry x="114" width="22" height="22" as="geometry">
            <mxRectangle width="22" height="22" as="alternateBounds" />
          </mxGeometry>
        </mxCell>
        <mxCell id="xik8CPmccJCm_76LAXyS-135" style="shape=tableRow;horizontal=0;startSize=0;swimlaneHead=0;swimlaneBody=0;fillColor=none;collapsible=0;dropTarget=0;points=[[0,0.5],[1,0.5]];portConstraint=eastwest;top=0;left=0;right=0;bottom=0;" vertex="1" parent="xik8CPmccJCm_76LAXyS-118">
          <mxGeometry y="113" width="136" height="22" as="geometry" />
        </mxCell>
        <mxCell id="xik8CPmccJCm_76LAXyS-136" value="float" style="shape=partialRectangle;connectable=0;fillColor=none;top=0;left=0;bottom=0;right=0;align=left;spacingLeft=2;overflow=hidden;fontSize=11;" vertex="1" parent="xik8CPmccJCm_76LAXyS-135">
          <mxGeometry width="30" height="22" as="geometry">
            <mxRectangle width="30" height="22" as="alternateBounds" />
          </mxGeometry>
        </mxCell>
        <mxCell id="xik8CPmccJCm_76LAXyS-137" value="eColi" style="shape=partialRectangle;connectable=0;fillColor=none;top=0;left=0;bottom=0;right=0;align=left;spacingLeft=2;overflow=hidden;fontSize=11;" vertex="1" parent="xik8CPmccJCm_76LAXyS-135">
          <mxGeometry x="30" width="84" height="22" as="geometry">
            <mxRectangle width="84" height="22" as="alternateBounds" />
          </mxGeometry>
        </mxCell>
        <mxCell id="xik8CPmccJCm_76LAXyS-138" value="" style="shape=partialRectangle;connectable=0;fillColor=none;top=0;left=0;bottom=0;right=0;align=left;spacingLeft=2;overflow=hidden;fontSize=11;" vertex="1" parent="xik8CPmccJCm_76LAXyS-135">
          <mxGeometry x="114" width="22" height="22" as="geometry">
            <mxRectangle width="22" height="22" as="alternateBounds" />
          </mxGeometry>
        </mxCell>
        <mxCell id="xik8CPmccJCm_76LAXyS-139" value="weather" style="shape=table;startSize=25;container=1;collapsible=0;childLayout=tableLayout;fixedRows=1;rowLines=1;fontStyle=1;align=center;resizeLast=1;" vertex="1" parent="1">
          <mxGeometry x="460" y="840" width="136" height="135" as="geometry" />
        </mxCell>
        <mxCell id="xik8CPmccJCm_76LAXyS-140" style="shape=tableRow;horizontal=0;startSize=0;swimlaneHead=0;swimlaneBody=0;fillColor=none;collapsible=0;dropTarget=0;points=[[0,0.5],[1,0.5]];portConstraint=eastwest;top=0;left=0;right=0;bottom=0;" vertex="1" parent="xik8CPmccJCm_76LAXyS-139">
          <mxGeometry y="25" width="136" height="22" as="geometry" />
        </mxCell>
        <mxCell id="xik8CPmccJCm_76LAXyS-141" value="int" style="shape=partialRectangle;connectable=0;fillColor=none;top=0;left=0;bottom=0;right=0;align=left;spacingLeft=2;overflow=hidden;fontSize=11;" vertex="1" parent="xik8CPmccJCm_76LAXyS-140">
          <mxGeometry width="30" height="22" as="geometry">
            <mxRectangle width="30" height="22" as="alternateBounds" />
          </mxGeometry>
        </mxCell>
        <mxCell id="xik8CPmccJCm_76LAXyS-142" value="measurementID" style="shape=partialRectangle;connectable=0;fillColor=none;top=0;left=0;bottom=0;right=0;align=left;spacingLeft=2;overflow=hidden;fontSize=11;" vertex="1" parent="xik8CPmccJCm_76LAXyS-140">
          <mxGeometry x="30" width="84" height="22" as="geometry">
            <mxRectangle width="84" height="22" as="alternateBounds" />
          </mxGeometry>
        </mxCell>
        <mxCell id="xik8CPmccJCm_76LAXyS-143" value="PK" style="shape=partialRectangle;connectable=0;fillColor=none;top=0;left=0;bottom=0;right=0;align=left;spacingLeft=2;overflow=hidden;fontSize=11;" vertex="1" parent="xik8CPmccJCm_76LAXyS-140">
          <mxGeometry x="114" width="22" height="22" as="geometry">
            <mxRectangle width="22" height="22" as="alternateBounds" />
          </mxGeometry>
        </mxCell>
        <mxCell id="xik8CPmccJCm_76LAXyS-144" style="shape=tableRow;horizontal=0;startSize=0;swimlaneHead=0;swimlaneBody=0;fillColor=none;collapsible=0;dropTarget=0;points=[[0,0.5],[1,0.5]];portConstraint=eastwest;top=0;left=0;right=0;bottom=0;" vertex="1" parent="xik8CPmccJCm_76LAXyS-139">
          <mxGeometry y="47" width="136" height="22" as="geometry" />
        </mxCell>
        <mxCell id="xik8CPmccJCm_76LAXyS-145" value="float" style="shape=partialRectangle;connectable=0;fillColor=none;top=0;left=0;bottom=0;right=0;align=left;spacingLeft=2;overflow=hidden;fontSize=11;" vertex="1" parent="xik8CPmccJCm_76LAXyS-144">
          <mxGeometry width="30" height="22" as="geometry">
            <mxRectangle width="30" height="22" as="alternateBounds" />
          </mxGeometry>
        </mxCell>
        <mxCell id="xik8CPmccJCm_76LAXyS-146" value="temperature" style="shape=partialRectangle;connectable=0;fillColor=none;top=0;left=0;bottom=0;right=0;align=left;spacingLeft=2;overflow=hidden;fontSize=11;" vertex="1" parent="xik8CPmccJCm_76LAXyS-144">
          <mxGeometry x="30" width="84" height="22" as="geometry">
            <mxRectangle width="84" height="22" as="alternateBounds" />
          </mxGeometry>
        </mxCell>
        <mxCell id="xik8CPmccJCm_76LAXyS-147" value="" style="shape=partialRectangle;connectable=0;fillColor=none;top=0;left=0;bottom=0;right=0;align=left;spacingLeft=2;overflow=hidden;fontSize=11;" vertex="1" parent="xik8CPmccJCm_76LAXyS-144">
          <mxGeometry x="114" width="22" height="22" as="geometry">
            <mxRectangle width="22" height="22" as="alternateBounds" />
          </mxGeometry>
        </mxCell>
        <mxCell id="xik8CPmccJCm_76LAXyS-148" style="shape=tableRow;horizontal=0;startSize=0;swimlaneHead=0;swimlaneBody=0;fillColor=none;collapsible=0;dropTarget=0;points=[[0,0.5],[1,0.5]];portConstraint=eastwest;top=0;left=0;right=0;bottom=0;" vertex="1" parent="xik8CPmccJCm_76LAXyS-139">
          <mxGeometry y="69" width="136" height="22" as="geometry" />
        </mxCell>
        <mxCell id="xik8CPmccJCm_76LAXyS-149" value="float" style="shape=partialRectangle;connectable=0;fillColor=none;top=0;left=0;bottom=0;right=0;align=left;spacingLeft=2;overflow=hidden;fontSize=11;" vertex="1" parent="xik8CPmccJCm_76LAXyS-148">
          <mxGeometry width="30" height="22" as="geometry">
            <mxRectangle width="30" height="22" as="alternateBounds" />
          </mxGeometry>
        </mxCell>
        <mxCell id="xik8CPmccJCm_76LAXyS-150" value="humidity" style="shape=partialRectangle;connectable=0;fillColor=none;top=0;left=0;bottom=0;right=0;align=left;spacingLeft=2;overflow=hidden;fontSize=11;" vertex="1" parent="xik8CPmccJCm_76LAXyS-148">
          <mxGeometry x="30" width="84" height="22" as="geometry">
            <mxRectangle width="84" height="22" as="alternateBounds" />
          </mxGeometry>
        </mxCell>
        <mxCell id="xik8CPmccJCm_76LAXyS-151" value="" style="shape=partialRectangle;connectable=0;fillColor=none;top=0;left=0;bottom=0;right=0;align=left;spacingLeft=2;overflow=hidden;fontSize=11;" vertex="1" parent="xik8CPmccJCm_76LAXyS-148">
          <mxGeometry x="114" width="22" height="22" as="geometry">
            <mxRectangle width="22" height="22" as="alternateBounds" />
          </mxGeometry>
        </mxCell>
        <mxCell id="xik8CPmccJCm_76LAXyS-152" style="shape=tableRow;horizontal=0;startSize=0;swimlaneHead=0;swimlaneBody=0;fillColor=none;collapsible=0;dropTarget=0;points=[[0,0.5],[1,0.5]];portConstraint=eastwest;top=0;left=0;right=0;bottom=0;" vertex="1" parent="xik8CPmccJCm_76LAXyS-139">
          <mxGeometry y="91" width="136" height="22" as="geometry" />
        </mxCell>
        <mxCell id="xik8CPmccJCm_76LAXyS-153" value="float" style="shape=partialRectangle;connectable=0;fillColor=none;top=0;left=0;bottom=0;right=0;align=left;spacingLeft=2;overflow=hidden;fontSize=11;" vertex="1" parent="xik8CPmccJCm_76LAXyS-152">
          <mxGeometry width="30" height="22" as="geometry">
            <mxRectangle width="30" height="22" as="alternateBounds" />
          </mxGeometry>
        </mxCell>
        <mxCell id="xik8CPmccJCm_76LAXyS-154" value="windSpeed" style="shape=partialRectangle;connectable=0;fillColor=none;top=0;left=0;bottom=0;right=0;align=left;spacingLeft=2;overflow=hidden;fontSize=11;" vertex="1" parent="xik8CPmccJCm_76LAXyS-152">
          <mxGeometry x="30" width="84" height="22" as="geometry">
            <mxRectangle width="84" height="22" as="alternateBounds" />
          </mxGeometry>
        </mxCell>
        <mxCell id="xik8CPmccJCm_76LAXyS-155" value="" style="shape=partialRectangle;connectable=0;fillColor=none;top=0;left=0;bottom=0;right=0;align=left;spacingLeft=2;overflow=hidden;fontSize=11;" vertex="1" parent="xik8CPmccJCm_76LAXyS-152">
          <mxGeometry x="114" width="22" height="22" as="geometry">
            <mxRectangle width="22" height="22" as="alternateBounds" />
          </mxGeometry>
        </mxCell>
        <mxCell id="xik8CPmccJCm_76LAXyS-156" style="shape=tableRow;horizontal=0;startSize=0;swimlaneHead=0;swimlaneBody=0;fillColor=none;collapsible=0;dropTarget=0;points=[[0,0.5],[1,0.5]];portConstraint=eastwest;top=0;left=0;right=0;bottom=0;" vertex="1" parent="xik8CPmccJCm_76LAXyS-139">
          <mxGeometry y="113" width="136" height="22" as="geometry" />
        </mxCell>
        <mxCell id="xik8CPmccJCm_76LAXyS-157" value="float" style="shape=partialRectangle;connectable=0;fillColor=none;top=0;left=0;bottom=0;right=0;align=left;spacingLeft=2;overflow=hidden;fontSize=11;" vertex="1" parent="xik8CPmccJCm_76LAXyS-156">
          <mxGeometry width="30" height="22" as="geometry">
            <mxRectangle width="30" height="22" as="alternateBounds" />
          </mxGeometry>
        </mxCell>
        <mxCell id="xik8CPmccJCm_76LAXyS-158" value="windDirection" style="shape=partialRectangle;connectable=0;fillColor=none;top=0;left=0;bottom=0;right=0;align=left;spacingLeft=2;overflow=hidden;fontSize=11;" vertex="1" parent="xik8CPmccJCm_76LAXyS-156">
          <mxGeometry x="30" width="84" height="22" as="geometry">
            <mxRectangle width="84" height="22" as="alternateBounds" />
          </mxGeometry>
        </mxCell>
        <mxCell id="xik8CPmccJCm_76LAXyS-159" value="" style="shape=partialRectangle;connectable=0;fillColor=none;top=0;left=0;bottom=0;right=0;align=left;spacingLeft=2;overflow=hidden;fontSize=11;" vertex="1" parent="xik8CPmccJCm_76LAXyS-156">
          <mxGeometry x="114" width="22" height="22" as="geometry">
            <mxRectangle width="22" height="22" as="alternateBounds" />
          </mxGeometry>
        </mxCell>
        <mxCell id="xik8CPmccJCm_76LAXyS-160" value="alert" style="shape=table;startSize=25;container=1;collapsible=0;childLayout=tableLayout;fixedRows=1;rowLines=1;fontStyle=1;align=center;resizeLast=1;" vertex="1" parent="1">
          <mxGeometry x="727" y="787" width="155" height="157" as="geometry" />
        </mxCell>
        <mxCell id="xik8CPmccJCm_76LAXyS-161" style="shape=tableRow;horizontal=0;startSize=0;swimlaneHead=0;swimlaneBody=0;fillColor=none;collapsible=0;dropTarget=0;points=[[0,0.5],[1,0.5]];portConstraint=eastwest;top=0;left=0;right=0;bottom=0;" vertex="1" parent="xik8CPmccJCm_76LAXyS-160">
          <mxGeometry y="25" width="155" height="22" as="geometry" />
        </mxCell>
        <mxCell id="xik8CPmccJCm_76LAXyS-162" value="int" style="shape=partialRectangle;connectable=0;fillColor=none;top=0;left=0;bottom=0;right=0;align=left;spacingLeft=2;overflow=hidden;fontSize=11;" vertex="1" parent="xik8CPmccJCm_76LAXyS-161">
          <mxGeometry width="48" height="22" as="geometry">
            <mxRectangle width="48" height="22" as="alternateBounds" />
          </mxGeometry>
        </mxCell>
        <mxCell id="xik8CPmccJCm_76LAXyS-163" value="AlertID" style="shape=partialRectangle;connectable=0;fillColor=none;top=0;left=0;bottom=0;right=0;align=left;spacingLeft=2;overflow=hidden;fontSize=11;" vertex="1" parent="xik8CPmccJCm_76LAXyS-161">
          <mxGeometry x="48" width="85" height="22" as="geometry">
            <mxRectangle width="85" height="22" as="alternateBounds" />
          </mxGeometry>
        </mxCell>
        <mxCell id="xik8CPmccJCm_76LAXyS-164" value="PK" style="shape=partialRectangle;connectable=0;fillColor=none;top=0;left=0;bottom=0;right=0;align=left;spacingLeft=2;overflow=hidden;fontSize=11;" vertex="1" parent="xik8CPmccJCm_76LAXyS-161">
          <mxGeometry x="133" width="22" height="22" as="geometry">
            <mxRectangle width="22" height="22" as="alternateBounds" />
          </mxGeometry>
        </mxCell>
        <mxCell id="xik8CPmccJCm_76LAXyS-165" style="shape=tableRow;horizontal=0;startSize=0;swimlaneHead=0;swimlaneBody=0;fillColor=none;collapsible=0;dropTarget=0;points=[[0,0.5],[1,0.5]];portConstraint=eastwest;top=0;left=0;right=0;bottom=0;" vertex="1" parent="xik8CPmccJCm_76LAXyS-160">
          <mxGeometry y="47" width="155" height="22" as="geometry" />
        </mxCell>
        <mxCell id="xik8CPmccJCm_76LAXyS-166" value="datetime" style="shape=partialRectangle;connectable=0;fillColor=none;top=0;left=0;bottom=0;right=0;align=left;spacingLeft=2;overflow=hidden;fontSize=11;" vertex="1" parent="xik8CPmccJCm_76LAXyS-165">
          <mxGeometry width="48" height="22" as="geometry">
            <mxRectangle width="48" height="22" as="alternateBounds" />
          </mxGeometry>
        </mxCell>
        <mxCell id="xik8CPmccJCm_76LAXyS-167" value="timestamp" style="shape=partialRectangle;connectable=0;fillColor=none;top=0;left=0;bottom=0;right=0;align=left;spacingLeft=2;overflow=hidden;fontSize=11;" vertex="1" parent="xik8CPmccJCm_76LAXyS-165">
          <mxGeometry x="48" width="85" height="22" as="geometry">
            <mxRectangle width="85" height="22" as="alternateBounds" />
          </mxGeometry>
        </mxCell>
        <mxCell id="xik8CPmccJCm_76LAXyS-168" value="" style="shape=partialRectangle;connectable=0;fillColor=none;top=0;left=0;bottom=0;right=0;align=left;spacingLeft=2;overflow=hidden;fontSize=11;" vertex="1" parent="xik8CPmccJCm_76LAXyS-165">
          <mxGeometry x="133" width="22" height="22" as="geometry">
            <mxRectangle width="22" height="22" as="alternateBounds" />
          </mxGeometry>
        </mxCell>
        <mxCell id="xik8CPmccJCm_76LAXyS-169" style="shape=tableRow;horizontal=0;startSize=0;swimlaneHead=0;swimlaneBody=0;fillColor=none;collapsible=0;dropTarget=0;points=[[0,0.5],[1,0.5]];portConstraint=eastwest;top=0;left=0;right=0;bottom=0;" vertex="1" parent="xik8CPmccJCm_76LAXyS-160">
          <mxGeometry y="69" width="155" height="22" as="geometry" />
        </mxCell>
        <mxCell id="xik8CPmccJCm_76LAXyS-170" value="string" style="shape=partialRectangle;connectable=0;fillColor=none;top=0;left=0;bottom=0;right=0;align=left;spacingLeft=2;overflow=hidden;fontSize=11;" vertex="1" parent="xik8CPmccJCm_76LAXyS-169">
          <mxGeometry width="48" height="22" as="geometry">
            <mxRectangle width="48" height="22" as="alternateBounds" />
          </mxGeometry>
        </mxCell>
        <mxCell id="xik8CPmccJCm_76LAXyS-171" value="alertType" style="shape=partialRectangle;connectable=0;fillColor=none;top=0;left=0;bottom=0;right=0;align=left;spacingLeft=2;overflow=hidden;fontSize=11;" vertex="1" parent="xik8CPmccJCm_76LAXyS-169">
          <mxGeometry x="48" width="85" height="22" as="geometry">
            <mxRectangle width="85" height="22" as="alternateBounds" />
          </mxGeometry>
        </mxCell>
        <mxCell id="xik8CPmccJCm_76LAXyS-172" value="" style="shape=partialRectangle;connectable=0;fillColor=none;top=0;left=0;bottom=0;right=0;align=left;spacingLeft=2;overflow=hidden;fontSize=11;" vertex="1" parent="xik8CPmccJCm_76LAXyS-169">
          <mxGeometry x="133" width="22" height="22" as="geometry">
            <mxRectangle width="22" height="22" as="alternateBounds" />
          </mxGeometry>
        </mxCell>
        <mxCell id="xik8CPmccJCm_76LAXyS-173" style="shape=tableRow;horizontal=0;startSize=0;swimlaneHead=0;swimlaneBody=0;fillColor=none;collapsible=0;dropTarget=0;points=[[0,0.5],[1,0.5]];portConstraint=eastwest;top=0;left=0;right=0;bottom=0;" vertex="1" parent="xik8CPmccJCm_76LAXyS-160">
          <mxGeometry y="91" width="155" height="22" as="geometry" />
        </mxCell>
        <mxCell id="xik8CPmccJCm_76LAXyS-174" value="int" style="shape=partialRectangle;connectable=0;fillColor=none;top=0;left=0;bottom=0;right=0;align=left;spacingLeft=2;overflow=hidden;fontSize=11;" vertex="1" parent="xik8CPmccJCm_76LAXyS-173">
          <mxGeometry width="48" height="22" as="geometry">
            <mxRectangle width="48" height="22" as="alternateBounds" />
          </mxGeometry>
        </mxCell>
        <mxCell id="xik8CPmccJCm_76LAXyS-175" value="measurementID" style="shape=partialRectangle;connectable=0;fillColor=none;top=0;left=0;bottom=0;right=0;align=left;spacingLeft=2;overflow=hidden;fontSize=11;" vertex="1" parent="xik8CPmccJCm_76LAXyS-173">
          <mxGeometry x="48" width="85" height="22" as="geometry">
            <mxRectangle width="85" height="22" as="alternateBounds" />
          </mxGeometry>
        </mxCell>
        <mxCell id="xik8CPmccJCm_76LAXyS-176" value="FK" style="shape=partialRectangle;connectable=0;fillColor=none;top=0;left=0;bottom=0;right=0;align=left;spacingLeft=2;overflow=hidden;fontSize=11;" vertex="1" parent="xik8CPmccJCm_76LAXyS-173">
          <mxGeometry x="133" width="22" height="22" as="geometry">
            <mxRectangle width="22" height="22" as="alternateBounds" />
          </mxGeometry>
        </mxCell>
        <mxCell id="xik8CPmccJCm_76LAXyS-177" style="shape=tableRow;horizontal=0;startSize=0;swimlaneHead=0;swimlaneBody=0;fillColor=none;collapsible=0;dropTarget=0;points=[[0,0.5],[1,0.5]];portConstraint=eastwest;top=0;left=0;right=0;bottom=0;" vertex="1" parent="xik8CPmccJCm_76LAXyS-160">
          <mxGeometry y="113" width="155" height="22" as="geometry" />
        </mxCell>
        <mxCell id="xik8CPmccJCm_76LAXyS-178" value="string" style="shape=partialRectangle;connectable=0;fillColor=none;top=0;left=0;bottom=0;right=0;align=left;spacingLeft=2;overflow=hidden;fontSize=11;" vertex="1" parent="xik8CPmccJCm_76LAXyS-177">
          <mxGeometry width="48" height="22" as="geometry">
            <mxRectangle width="48" height="22" as="alternateBounds" />
          </mxGeometry>
        </mxCell>
        <mxCell id="xik8CPmccJCm_76LAXyS-179" value="status" style="shape=partialRectangle;connectable=0;fillColor=none;top=0;left=0;bottom=0;right=0;align=left;spacingLeft=2;overflow=hidden;fontSize=11;" vertex="1" parent="xik8CPmccJCm_76LAXyS-177">
          <mxGeometry x="48" width="85" height="22" as="geometry">
            <mxRectangle width="85" height="22" as="alternateBounds" />
          </mxGeometry>
        </mxCell>
        <mxCell id="xik8CPmccJCm_76LAXyS-180" value="" style="shape=partialRectangle;connectable=0;fillColor=none;top=0;left=0;bottom=0;right=0;align=left;spacingLeft=2;overflow=hidden;fontSize=11;" vertex="1" parent="xik8CPmccJCm_76LAXyS-177">
          <mxGeometry x="133" width="22" height="22" as="geometry">
            <mxRectangle width="22" height="22" as="alternateBounds" />
          </mxGeometry>
        </mxCell>
        <mxCell id="xik8CPmccJCm_76LAXyS-181" style="shape=tableRow;horizontal=0;startSize=0;swimlaneHead=0;swimlaneBody=0;fillColor=none;collapsible=0;dropTarget=0;points=[[0,0.5],[1,0.5]];portConstraint=eastwest;top=0;left=0;right=0;bottom=0;" vertex="1" parent="xik8CPmccJCm_76LAXyS-160">
          <mxGeometry y="135" width="155" height="22" as="geometry" />
        </mxCell>
        <mxCell id="xik8CPmccJCm_76LAXyS-182" value="string" style="shape=partialRectangle;connectable=0;fillColor=none;top=0;left=0;bottom=0;right=0;align=left;spacingLeft=2;overflow=hidden;fontSize=11;" vertex="1" parent="xik8CPmccJCm_76LAXyS-181">
          <mxGeometry width="48" height="22" as="geometry">
            <mxRectangle width="48" height="22" as="alternateBounds" />
          </mxGeometry>
        </mxCell>
        <mxCell id="xik8CPmccJCm_76LAXyS-183" value="message" style="shape=partialRectangle;connectable=0;fillColor=none;top=0;left=0;bottom=0;right=0;align=left;spacingLeft=2;overflow=hidden;fontSize=11;" vertex="1" parent="xik8CPmccJCm_76LAXyS-181">
          <mxGeometry x="48" width="85" height="22" as="geometry">
            <mxRectangle width="85" height="22" as="alternateBounds" />
          </mxGeometry>
        </mxCell>
        <mxCell id="xik8CPmccJCm_76LAXyS-184" value="" style="shape=partialRectangle;connectable=0;fillColor=none;top=0;left=0;bottom=0;right=0;align=left;spacingLeft=2;overflow=hidden;fontSize=11;" vertex="1" parent="xik8CPmccJCm_76LAXyS-181">
          <mxGeometry x="133" width="22" height="22" as="geometry">
            <mxRectangle width="22" height="22" as="alternateBounds" />
          </mxGeometry>
        </mxCell>
        <mxCell id="xik8CPmccJCm_76LAXyS-185" value="report" style="shape=table;startSize=25;container=1;collapsible=0;childLayout=tableLayout;fixedRows=1;rowLines=1;fontStyle=1;align=center;resizeLast=1;" vertex="1" parent="1">
          <mxGeometry x="498" y="254" width="129" height="135" as="geometry" />
        </mxCell>
        <mxCell id="xik8CPmccJCm_76LAXyS-186" style="shape=tableRow;horizontal=0;startSize=0;swimlaneHead=0;swimlaneBody=0;fillColor=none;collapsible=0;dropTarget=0;points=[[0,0.5],[1,0.5]];portConstraint=eastwest;top=0;left=0;right=0;bottom=0;" vertex="1" parent="xik8CPmccJCm_76LAXyS-185">
          <mxGeometry y="25" width="129" height="22" as="geometry" />
        </mxCell>
        <mxCell id="xik8CPmccJCm_76LAXyS-187" value="int" style="shape=partialRectangle;connectable=0;fillColor=none;top=0;left=0;bottom=0;right=0;align=left;spacingLeft=2;overflow=hidden;fontSize=11;" vertex="1" parent="xik8CPmccJCm_76LAXyS-186">
          <mxGeometry width="36" height="22" as="geometry">
            <mxRectangle width="36" height="22" as="alternateBounds" />
          </mxGeometry>
        </mxCell>
        <mxCell id="xik8CPmccJCm_76LAXyS-188" value="reportID" style="shape=partialRectangle;connectable=0;fillColor=none;top=0;left=0;bottom=0;right=0;align=left;spacingLeft=2;overflow=hidden;fontSize=11;" vertex="1" parent="xik8CPmccJCm_76LAXyS-186">
          <mxGeometry x="36" width="71" height="22" as="geometry">
            <mxRectangle width="71" height="22" as="alternateBounds" />
          </mxGeometry>
        </mxCell>
        <mxCell id="xik8CPmccJCm_76LAXyS-189" value="PK" style="shape=partialRectangle;connectable=0;fillColor=none;top=0;left=0;bottom=0;right=0;align=left;spacingLeft=2;overflow=hidden;fontSize=11;" vertex="1" parent="xik8CPmccJCm_76LAXyS-186">
          <mxGeometry x="107" width="22" height="22" as="geometry">
            <mxRectangle width="22" height="22" as="alternateBounds" />
          </mxGeometry>
        </mxCell>
        <mxCell id="xik8CPmccJCm_76LAXyS-190" style="shape=tableRow;horizontal=0;startSize=0;swimlaneHead=0;swimlaneBody=0;fillColor=none;collapsible=0;dropTarget=0;points=[[0,0.5],[1,0.5]];portConstraint=eastwest;top=0;left=0;right=0;bottom=0;" vertex="1" parent="xik8CPmccJCm_76LAXyS-185">
          <mxGeometry y="47" width="129" height="22" as="geometry" />
        </mxCell>
        <mxCell id="xik8CPmccJCm_76LAXyS-191" value="int" style="shape=partialRectangle;connectable=0;fillColor=none;top=0;left=0;bottom=0;right=0;align=left;spacingLeft=2;overflow=hidden;fontSize=11;" vertex="1" parent="xik8CPmccJCm_76LAXyS-190">
          <mxGeometry width="36" height="22" as="geometry">
            <mxRectangle width="36" height="22" as="alternateBounds" />
          </mxGeometry>
        </mxCell>
        <mxCell id="xik8CPmccJCm_76LAXyS-192" value="generated_by" style="shape=partialRectangle;connectable=0;fillColor=none;top=0;left=0;bottom=0;right=0;align=left;spacingLeft=2;overflow=hidden;fontSize=11;" vertex="1" parent="xik8CPmccJCm_76LAXyS-190">
          <mxGeometry x="36" width="71" height="22" as="geometry">
            <mxRectangle width="71" height="22" as="alternateBounds" />
          </mxGeometry>
        </mxCell>
        <mxCell id="xik8CPmccJCm_76LAXyS-193" value="FK" style="shape=partialRectangle;connectable=0;fillColor=none;top=0;left=0;bottom=0;right=0;align=left;spacingLeft=2;overflow=hidden;fontSize=11;" vertex="1" parent="xik8CPmccJCm_76LAXyS-190">
          <mxGeometry x="107" width="22" height="22" as="geometry">
            <mxRectangle width="22" height="22" as="alternateBounds" />
          </mxGeometry>
        </mxCell>
        <mxCell id="xik8CPmccJCm_76LAXyS-194" style="shape=tableRow;horizontal=0;startSize=0;swimlaneHead=0;swimlaneBody=0;fillColor=none;collapsible=0;dropTarget=0;points=[[0,0.5],[1,0.5]];portConstraint=eastwest;top=0;left=0;right=0;bottom=0;" vertex="1" parent="xik8CPmccJCm_76LAXyS-185">
          <mxGeometry y="69" width="129" height="22" as="geometry" />
        </mxCell>
        <mxCell id="xik8CPmccJCm_76LAXyS-195" value="date" style="shape=partialRectangle;connectable=0;fillColor=none;top=0;left=0;bottom=0;right=0;align=left;spacingLeft=2;overflow=hidden;fontSize=11;" vertex="1" parent="xik8CPmccJCm_76LAXyS-194">
          <mxGeometry width="36" height="22" as="geometry">
            <mxRectangle width="36" height="22" as="alternateBounds" />
          </mxGeometry>
        </mxCell>
        <mxCell id="xik8CPmccJCm_76LAXyS-196" value="generated_on" style="shape=partialRectangle;connectable=0;fillColor=none;top=0;left=0;bottom=0;right=0;align=left;spacingLeft=2;overflow=hidden;fontSize=11;" vertex="1" parent="xik8CPmccJCm_76LAXyS-194">
          <mxGeometry x="36" width="71" height="22" as="geometry">
            <mxRectangle width="71" height="22" as="alternateBounds" />
          </mxGeometry>
        </mxCell>
        <mxCell id="xik8CPmccJCm_76LAXyS-197" value="" style="shape=partialRectangle;connectable=0;fillColor=none;top=0;left=0;bottom=0;right=0;align=left;spacingLeft=2;overflow=hidden;fontSize=11;" vertex="1" parent="xik8CPmccJCm_76LAXyS-194">
          <mxGeometry x="107" width="22" height="22" as="geometry">
            <mxRectangle width="22" height="22" as="alternateBounds" />
          </mxGeometry>
        </mxCell>
        <mxCell id="xik8CPmccJCm_76LAXyS-198" style="shape=tableRow;horizontal=0;startSize=0;swimlaneHead=0;swimlaneBody=0;fillColor=none;collapsible=0;dropTarget=0;points=[[0,0.5],[1,0.5]];portConstraint=eastwest;top=0;left=0;right=0;bottom=0;" vertex="1" parent="xik8CPmccJCm_76LAXyS-185">
          <mxGeometry y="91" width="129" height="22" as="geometry" />
        </mxCell>
        <mxCell id="xik8CPmccJCm_76LAXyS-199" value="string" style="shape=partialRectangle;connectable=0;fillColor=none;top=0;left=0;bottom=0;right=0;align=left;spacingLeft=2;overflow=hidden;fontSize=11;" vertex="1" parent="xik8CPmccJCm_76LAXyS-198">
          <mxGeometry width="36" height="22" as="geometry">
            <mxRectangle width="36" height="22" as="alternateBounds" />
          </mxGeometry>
        </mxCell>
        <mxCell id="xik8CPmccJCm_76LAXyS-200" value="type" style="shape=partialRectangle;connectable=0;fillColor=none;top=0;left=0;bottom=0;right=0;align=left;spacingLeft=2;overflow=hidden;fontSize=11;" vertex="1" parent="xik8CPmccJCm_76LAXyS-198">
          <mxGeometry x="36" width="71" height="22" as="geometry">
            <mxRectangle width="71" height="22" as="alternateBounds" />
          </mxGeometry>
        </mxCell>
        <mxCell id="xik8CPmccJCm_76LAXyS-201" value="" style="shape=partialRectangle;connectable=0;fillColor=none;top=0;left=0;bottom=0;right=0;align=left;spacingLeft=2;overflow=hidden;fontSize=11;" vertex="1" parent="xik8CPmccJCm_76LAXyS-198">
          <mxGeometry x="107" width="22" height="22" as="geometry">
            <mxRectangle width="22" height="22" as="alternateBounds" />
          </mxGeometry>
        </mxCell>
        <mxCell id="xik8CPmccJCm_76LAXyS-202" style="shape=tableRow;horizontal=0;startSize=0;swimlaneHead=0;swimlaneBody=0;fillColor=none;collapsible=0;dropTarget=0;points=[[0,0.5],[1,0.5]];portConstraint=eastwest;top=0;left=0;right=0;bottom=0;" vertex="1" parent="xik8CPmccJCm_76LAXyS-185">
          <mxGeometry y="113" width="129" height="22" as="geometry" />
        </mxCell>
        <mxCell id="xik8CPmccJCm_76LAXyS-203" value="string" style="shape=partialRectangle;connectable=0;fillColor=none;top=0;left=0;bottom=0;right=0;align=left;spacingLeft=2;overflow=hidden;fontSize=11;" vertex="1" parent="xik8CPmccJCm_76LAXyS-202">
          <mxGeometry width="36" height="22" as="geometry">
            <mxRectangle width="36" height="22" as="alternateBounds" />
          </mxGeometry>
        </mxCell>
        <mxCell id="xik8CPmccJCm_76LAXyS-204" value="content" style="shape=partialRectangle;connectable=0;fillColor=none;top=0;left=0;bottom=0;right=0;align=left;spacingLeft=2;overflow=hidden;fontSize=11;" vertex="1" parent="xik8CPmccJCm_76LAXyS-202">
          <mxGeometry x="36" width="71" height="22" as="geometry">
            <mxRectangle width="71" height="22" as="alternateBounds" />
          </mxGeometry>
        </mxCell>
        <mxCell id="xik8CPmccJCm_76LAXyS-205" value="" style="shape=partialRectangle;connectable=0;fillColor=none;top=0;left=0;bottom=0;right=0;align=left;spacingLeft=2;overflow=hidden;fontSize=11;" vertex="1" parent="xik8CPmccJCm_76LAXyS-202">
          <mxGeometry x="107" width="22" height="22" as="geometry">
            <mxRectangle width="22" height="22" as="alternateBounds" />
          </mxGeometry>
        </mxCell>
        <mxCell id="xik8CPmccJCm_76LAXyS-206" value="generates" style="curved=0;startArrow=ERmandOne;startSize=10;;endArrow=ERzeroToMany;endSize=10;;exitX=0.94;exitY=1;entryX=0.489;entryY=-0.001;rounded=0;entryDx=0;entryDy=0;entryPerimeter=0;" edge="1" parent="1" source="xik8CPmccJCm_76LAXyS-1" target="xik8CPmccJCm_76LAXyS-185">
          <mxGeometry x="0.001" relative="1" as="geometry">
            <Array as="points">
              <mxPoint x="496" y="200" />
              <mxPoint x="560" y="200" />
            </Array>
            <mxPoint as="offset" />
          </mxGeometry>
        </mxCell>
        <mxCell id="xik8CPmccJCm_76LAXyS-207" value="manages" style="curved=0;startArrow=ERmandOne;startSize=10;;endArrow=ERzeroToMany;endSize=10;;exitX=0.02;exitY=1;entryX=0.49;entryY=0;rounded=0;" edge="1" parent="1" source="xik8CPmccJCm_76LAXyS-1" target="xik8CPmccJCm_76LAXyS-22">
          <mxGeometry relative="1" as="geometry">
            <Array as="points">
              <mxPoint x="360" y="200" />
              <mxPoint x="310" y="204" />
            </Array>
          </mxGeometry>
        </mxCell>
        <mxCell id="xik8CPmccJCm_76LAXyS-208" value="has" style="curved=0;startArrow=ERmandOne;startSize=10;;endArrow=ERzeroToMany;endSize=10;;exitX=0;exitY=0.93;entryX=0.5;entryY=0;rounded=0;" edge="1" parent="1" source="xik8CPmccJCm_76LAXyS-22" target="xik8CPmccJCm_76LAXyS-51">
          <mxGeometry relative="1" as="geometry">
            <Array as="points">
              <mxPoint x="180" y="420" />
              <mxPoint x="179" y="481" />
            </Array>
          </mxGeometry>
        </mxCell>
        <mxCell id="xik8CPmccJCm_76LAXyS-209" value="collects" style="curved=0;startArrow=ERmandOne;startSize=10;;endArrow=ERzeroToMany;endSize=10;;exitX=0.98;exitY=0.93;entryX=0.5;entryY=0;rounded=0;" edge="1" parent="1" source="xik8CPmccJCm_76LAXyS-22" target="xik8CPmccJCm_76LAXyS-72">
          <mxGeometry relative="1" as="geometry">
            <Array as="points">
              <mxPoint x="442" y="424" />
            </Array>
          </mxGeometry>
        </mxCell>
        <mxCell id="xik8CPmccJCm_76LAXyS-210" value="specialises" style="curved=0;startArrow=ERmandOne;startSize=10;;endArrow=ERmandOne;endSize=10;;exitX=0;exitY=0.69;entryX=0.5;entryY=0;rounded=0;" edge="1" parent="1" source="xik8CPmccJCm_76LAXyS-72" target="xik8CPmccJCm_76LAXyS-97">
          <mxGeometry relative="1" as="geometry">
            <Array as="points">
              <mxPoint x="310" y="639" />
              <mxPoint x="310" y="737" />
              <mxPoint x="88" y="737" />
            </Array>
          </mxGeometry>
        </mxCell>
        <mxCell id="xik8CPmccJCm_76LAXyS-211" value="specialises" style="curved=0;startArrow=ERmandOne;startSize=10;;endArrow=ERmandOne;endSize=10;;exitX=0.07;exitY=1;entryX=0.593;entryY=0.014;rounded=0;entryDx=0;entryDy=0;entryPerimeter=0;" edge="1" parent="1" source="xik8CPmccJCm_76LAXyS-72" target="xik8CPmccJCm_76LAXyS-118">
          <mxGeometry x="0.0038" relative="1" as="geometry">
            <Array as="points">
              <mxPoint x="370" y="750" />
            </Array>
            <mxPoint as="offset" />
          </mxGeometry>
        </mxCell>
        <mxCell id="xik8CPmccJCm_76LAXyS-212" value="specialises" style="curved=0;startArrow=ERmandOne;startSize=10;;endArrow=ERmandOne;endSize=10;;entryX=0.423;entryY=0.025;rounded=0;exitX=0.97;exitY=1.091;exitDx=0;exitDy=0;exitPerimeter=0;entryDx=0;entryDy=0;entryPerimeter=0;" edge="1" parent="1" target="xik8CPmccJCm_76LAXyS-139">
          <mxGeometry x="-0.0018" relative="1" as="geometry">
            <Array as="points" />
            <mxPoint x="516.99" y="690.0020000000001" as="sourcePoint" />
            <mxPoint x="525" y="840" as="targetPoint" />
            <mxPoint as="offset" />
          </mxGeometry>
        </mxCell>
        <mxCell id="xik8CPmccJCm_76LAXyS-213" value="triggers" style="curved=0;startArrow=ERmandOne;startSize=10;;endArrow=ERzeroToMany;endSize=10;;exitX=1;exitY=0.69;entryX=0.5;entryY=0;rounded=0;" edge="1" parent="1" source="xik8CPmccJCm_76LAXyS-72" target="xik8CPmccJCm_76LAXyS-160">
          <mxGeometry relative="1" as="geometry">
            <Array as="points">
              <mxPoint x="590" y="640" />
              <mxPoint x="590" y="740" />
              <mxPoint x="805" y="740" />
            </Array>
          </mxGeometry>
        </mxCell>
      </root>
    </mxGraphModel>
  </diagram>
</mxfile>
